<?xml version="1.0" encoding="UTF-8"?>
<!DOCTYPE svg PUBLIC "-//W3C//DTD SVG 1.1//EN" "http://www.w3.org/Graphics/SVG/1.1/DTD/svg11.dtd">
<!-- Creator: CorelDRAW 2020 (64-Bit) -->
<svg xmlns="http://www.w3.org/2000/svg" xml:space="preserve" width="123.211mm" height="216.234mm" version="1.1" style="shape-rendering:geometricPrecision; text-rendering:geometricPrecision; image-rendering:optimizeQuality; fill-rule:evenodd; clip-rule:evenodd"
viewBox="0 0 10712.69 18800.62"
 xmlns:xlink="http://www.w3.org/1999/xlink"
 xmlns:xodm="http://www.corel.com/coreldraw/odm/2003">
 <defs>
  <style type="text/css">
   <![CDATA[
    .fil0 {fill:#009A4B}
    .fil1 {fill:#1D1819;fill-rule:nonzero}
   ]]>
  </style>
 </defs>
 <g id="Layer_x0020_1">
  <metadata id="CorelCorpID_0Corel-Layer"/>
  <g id="_1649054117600">
   <path class="fil0" d="M4971.43 4875.25c0,817.1 161.91,1095.87 588.77,1720.6 76.3,111.68 52.73,60.8 52.73,235.94 -208.17,55.58 -379.05,283.29 -384.88,545.25 -296.17,0 -224.53,-31.07 -224.53,673.56l0 2309.33c95.68,-25.54 139.29,-114.75 224.53,-224.49 776.44,-999.84 619.42,-515.48 607.75,-1765.71 -2.91,-314.01 13.94,-173.32 130.13,-350.99 54.39,-83.15 85.57,-259.46 96.03,-385.07l384.88 0 0 -1282.97c0,-51.52 -144.36,-219.19 -184.72,-264.32 -501.68,-561.19 -660.18,-1251.04 -173.47,-1857.96 397.09,-495.17 914.64,-817.7 1470.08,-1095.84 374.06,-187.33 286.66,-210.74 1015.11,225.06 268.74,160.78 674.01,434.41 880.4,659.16l226.73 286.47c787.24,1199.37 -411.64,1910.96 -411.64,2079.5l0 1282.94 416.98 0c1.9,85.73 37.85,271.43 58.76,326.13 52.89,138.31 165.74,144.26 165.74,251.2l-32.05 8275.15 -9878.77 0 0 866 10584.38 0c73.9,0 96.22,-22.35 96.22,-96.21l0 -9878.85 -224.49 0c-19.85,-238.62 -150.85,-525.78 -384.89,-545.25 0,-366.94 125.65,-271.97 385.38,-801.38 161.57,-329.35 249.5,-663.44 256.09,-993.7l0 -80.5c-7.8,-384.51 -127.21,-762.89 -370.83,-1121.41 -149.18,-219.61 -507.67,-547.37 -733.15,-710.15 -459.34,-331.71 -1024.32,-602.53 -1390.53,-1047.12 -102.86,-124.9 -252.65,-1392.6 -290.56,-1665.93 -22.01,-158.55 -58,-305.41 -69.51,-443.68l-298.25 1690.33c-57.47,402.5 -64.9,387.76 -335.45,626.77 -593.32,524.19 -1056.9,677.57 -1635.59,1251.08 -276.09,273.58 -617.38,774.51 -617.38,1307.07z"/>
   <path class="fil1" d="M5838.94 13201.11l-2104.81 0 -25.06 42.13c11.21,10.13 22.4,19.73 32.53,28.27 6.4,5.33 13.34,9.61 21.86,13.86 -65.59,41.06 -131.71,82.13 -197.3,122.66 -72,46.38 -126.91,86.91 -164.24,122.65l0 -527.94 2044.54 0 0 -578.59c-10.68,-65.59 -21.87,-114.13 -33.07,-145.59 -15.99,-42.66 -35.19,-63.99 -57.05,-63.99 -26.67,0 -46.92,19.74 -61.32,58.13 -14.4,38.39 -21.34,89.05 -21.34,151.45l0 421.81 -1871.75 0 0 -966.28 361.54 0c15.48,0 36.8,-10.13 63.46,-29.86 32.53,-22.93 48.53,-44.79 48.53,-65.6 0,-24 -10.66,-47.46 -32.53,-70.39 -11.74,-10.13 -22.4,-21.32 -33.07,-32.53l-407.93 0 0 -995.07c37.33,22.93 83.17,77.31 137.57,163.72 39.46,62.38 93.85,93.85 162.64,93.85 20.81,0 36.27,-0.53 46.39,-1.61 10.66,-1.06 28.81,-4.8 54.94,-11.19 -46.39,50.12 -91.74,100.26 -136.52,150.37 -29.33,36.27 -44.26,85.86 -44.26,148.26l0 209.04c35.2,0 76.79,4.27 124.78,12.79 96.52,16.54 174.38,44.81 233.57,84.27 85.32,57.58 127.98,133.31 127.98,228.23 0,113.58 -44.26,206.9 -132.25,279.43 -82.11,67.73 -177.56,101.87 -285.29,101.87 -11.74,0 -24,-1.08 -37.87,-2.67 -13.32,-1.6 -23.45,-2.66 -30.92,-3.74l0 505.55 1449.42 0 -6.41 -220.24c0,-145.59 42.13,-253.84 126.92,-324.76 65.06,-52.8 130.64,-106.12 196.24,-158.92 22.95,45.86 62.4,89.6 118.92,132.25 97.59,75.19 146.65,143.98 146.65,206.37l0 723.65 184.51 0 0 198.38zm1242.52 -997.2c-9.6,30.39 -18.68,54.38 -26.67,72.51 -3.19,5.87 -7.47,13.87 -12.8,23.47l-135.98 -177.59 18.12 -31.47c0,-8.52 -0.53,-17.04 -1.59,-26.65 -1.07,-9.6 -7.46,-21.86 -19.73,-36.8 -12.27,-15.48 -24.53,-22.94 -36.8,-22.94 -4.27,0 -7.46,1.08 -10.13,3.19 -2.13,2.14 -4.27,3.75 -5.35,5.35l-222.9 284.76 -141.85 -183.97 173.85 -225.57c28.8,-31.47 58.13,-63.46 87.46,-96 38.4,-29.32 75.73,-43.72 110.92,-43.72 29.33,0 58.65,9.6 88.54,28.26 29.33,18.67 60.24,46.39 91.18,82.66 48,55.46 71.98,117.85 71.98,186.64 0,45.86 -9.6,98.65 -28.25,157.86zm-407.96 195.71l-123.18 181.84 -226.12 -268.77c-5.33,-8 -14.93,-22.4 -28.78,-43.2 -13.87,-20.26 -24.53,-38.92 -32,-55.45 -30.94,-66.13 -46.39,-127.45 -46.39,-182.92 0,-61.85 19.18,-123.71 57.58,-185.59 51.72,-85.85 115.72,-129.04 192.52,-129.04 20.79,0 43.73,4.8 68.79,14.38 25.06,9.61 52.25,28.27 81.05,56 10.66,9.07 23.48,22.94 39.46,41.06l-140.77 184.5 -23.48 -36.25c-5.33,0 -13.87,0 -26.67,-0.55 -12.26,-0.53 -22.4,3.75 -29.33,12.27 -7.47,9.07 -11.19,24.53 -11.19,46.39 0,11.74 0.53,21.87 1.59,31.47 1.07,9.6 2.66,18.67 5.33,26.67l241.57 307.17zm1024.94 801.49l-667.13 0c0,50.66 -8.52,98.65 -26.12,143.98 -17.06,45.32 -43.19,89.58 -77.86,133.84 -35.2,44.28 -69.86,76.81 -104.52,97.6 -35.2,20.81 -74.65,30.94 -118.39,30.94 -5.88,0 -12.26,0 -18.67,0 -9.07,-2.14 -15.99,-3.2 -20.26,-3.2 -39.46,-5.33 -72,-15.48 -97.6,-30.4 -25.59,-14.93 -53.32,-39.99 -83.71,-75.17 -35.21,-40.54 -61.86,-86.94 -80.53,-139.73 -18.14,-52.25 -27.2,-105.04 -27.2,-157.84l-751.37 0 0 -198.38 222.37 0 458.07 -652.73 155.7 166.93 -332.76 485.8 145.06 0 459.14 -654.86 141.32 183.45 -261.84 354.1c-21.34,39.46 -36.27,67.18 -44.79,84.24 -16.01,29.88 -24.01,60.27 -24.01,90.13 0,74.14 12.8,138.12 37.86,193.58 28.8,63.46 66.12,94.93 110.93,94.93 7.46,0 12.79,-0.53 15.46,-1.61 37.86,-6.39 68.26,-30.39 91.18,-71.98 18.68,-34.13 32.54,-81.06 40.53,-140.24 3.2,-18.68 4.8,-37.87 4.8,-57.6 0,-61.85 -13.34,-115.72 -39.46,-162.64 -26.67,-46.92 -62.93,-79.47 -109.33,-98.12l146.12 -189.32 243.69 375.43 149.84 0 -531.12 -746.05 136.51 -177.03 667.13 923.61 190.91 0 0 198.38zm1273.97 0l-633.52 0c0,-37.33 -11.72,-80 -34.66,-127.45 -22.93,-47.46 -43.73,-70.92 -62.38,-70.92 -16.54,0 -38.4,24 -66.12,71.98 -27.74,48 -41.59,90.13 -41.59,126.39l-598.34 0 0 -198.38 427.16 0c8.53,-8.54 24.01,-28.8 46.92,-61.85 22.93,-32.54 34.67,-52.8 34.67,-59.74 0,-13.85 -21.34,-28.78 -63.99,-45.32 -28.8,-11.74 -74.67,-25.06 -137.05,-40.53 -25.06,-6.39 -58.65,-13.33 -100.78,-20.26 -42.13,-7.47 -63.99,-11.74 -66.13,-12.8 45.86,-76.25 71.46,-117.85 77.86,-125.32 54.92,-69.86 118.92,-115.2 191.98,-135.99 19.73,-2.13 39.46,-3.74 59.18,-4.8 19.73,-1.05 30.4,-2.66 32.53,-4.8 11.74,-8.52 18.14,-31.47 20.28,-69.84 2.14,-37.87 7.47,-63.46 15.46,-75.73 41.59,-32.54 75.73,-60.26 101.32,-83.19 26.14,-22.94 47.99,-54.93 65.59,-96 85.33,88.54 139.71,148.78 163.72,180.25 20.81,27.2 30.94,51.72 30.94,72.53 0,12.8 0,22.93 0,31.47 0,10.66 0,19.18 0,25.59 119.45,0 212.77,36.8 279.96,110.39 53.33,85.85 87.99,141.32 103.45,166.38 -28.26,4.27 -60.24,9.07 -95.99,15.46 -35.72,6.41 -71.45,15.48 -107.19,26.67 -41.59,10.68 -84.25,25.06 -127.98,44.26 -14.41,5.88 -33.06,14.93 -56,26.67 22.95,24.54 45.34,53.86 68.26,86.94 22.93,33.05 42.13,49.59 57.6,49.59l414.87 0 0 198.38zm-588.71 -538.6c-14.41,-7.46 -26.67,-12.26 -37.34,-14.93 -10.66,-2.66 -25.06,-4.27 -43.19,-4.27 -3.21,-28.25 -8.01,-48.53 -14.4,-61.32 -10.68,-20.79 -27.2,-31.47 -48.53,-31.47 -17.59,0 -28.8,11.21 -34.13,33.6 -5.33,21.87 -8,42.13 -8,59.72 -30.94,3.21 -61.85,6.41 -92.79,9.6 51.19,31.47 86.38,54.41 106.12,68.26 9.6,5.88 20.28,13.34 31.47,21.87 4.27,0 19.73,-8 46.92,-24.01 31.47,-18.65 62.4,-37.85 93.87,-57.05zm1168.91 538.6l-694.32 0 0 -198.38 123.73 0c3.72,-27.2 7.46,-45.86 10.66,-57.6 3.21,-11.19 8.54,-25.59 16,-43.19 12.27,-30.4 27.2,-55.99 45.32,-77.86 17.59,-21.86 55.46,-56.52 114.13,-104.53 29.86,-24.53 69.31,-44.79 117.32,-60.24 97.6,-30.94 161.58,-62.93 190.39,-94.93 11.71,-12.26 24.53,-29.86 39.46,-52.8 14.4,-22.92 26.67,-41.59 37.33,-55.99l0 745.52zm-195.18 -198.38l-6.38 -207.97c-34.68,25.06 -62.93,44.26 -83.19,59.19 -38.93,28.8 -63.46,52.79 -72.53,72 -9.08,19.18 -13.88,37.85 -13.88,56.52 0,9.6 0,15.99 0,20.26l175.98 0z"/>
   <g>
    <path class="fil1" d="M527.75 15253.97c-31.65,-34.78 -58.74,-90.29 -81.08,-165.91 -29.87,-102.74 -48.85,-162.4 -56.96,-178.67 -25.31,-51.37 -56.36,-76.89 -92.55,-76.89 -38.76,0 -70.41,8.93 -95.13,27.12 -13.83,10.21 -23.93,19.15 -30.05,26.81 -6.14,7.97 -9.3,16.9 -9.3,26.8 0,20.74 3.16,42.12 9.3,64.13 3.16,11.8 10.87,35.73 23.13,71.46l22.55 -26.8c16.22,-15.31 34.81,-22.97 55.77,-22.97 20.77,0 41.93,18.5 63.09,55.19 7.71,14.36 16.02,33.82 24.92,58.07 6.12,16.91 14.23,40.52 24.32,70.51l-132.3 31.58c-22.15,6.38 -40.73,14.04 -55.97,23.61 -15.42,9.25 -29.26,21.37 -41.53,36.37 -12.46,15 -22.55,29.35 -30.46,42.75 -7.9,13.4 -14.63,28.07 -20.17,43.71 -9.29,28.08 -13.83,65.41 -13.83,112.31 0,44.35 11.67,87.1 34.8,128.26 12.07,20.74 23.93,36.05 35.4,46.58 11.67,10.22 24.32,15.32 37.77,15.32 32.23,0 63.67,2.23 94.73,6.38l64.46 8.61c-13.64,-25.84 -28.87,-47.22 -46.07,-64.77 -27.48,-28.07 -48.85,-42.12 -64.47,-42.12l-6.92 0c-14.63,0 -25.31,-1.91 -31.84,-5.74 -6.33,-2.23 -12.06,-6.06 -17.6,-11.16 -10.09,-7.34 -16.62,-18.51 -19.77,-33.19 -2.97,-14.68 -4.56,-30.63 -4.56,-48.18 0,-31.59 5.94,-56.47 17.8,-74.34 12.07,-17.55 30.06,-26.48 54.18,-26.48l52.8 3.83 196.77 0 38.76 -122.19zm-436.84 347.44c-18.59,-41.16 -27.87,-83.91 -27.87,-128.26 0,-56.15 5.93,-101.46 17.99,-135.91 12.06,-34.78 31.05,-67.64 57.15,-98.91 26.11,-31.27 55.77,-51.68 88.59,-61.58l-41.13 -62.85c-23.14,-65.4 -36.39,-104.65 -39.75,-117.72 -7.71,-28.72 -11.67,-56.79 -11.67,-84.23 0,-16.27 4.75,-32.54 14.24,-48.81 9.49,-15.95 23.54,-31.27 42.52,-45.63 27.68,-20.74 63.28,-30.94 106.4,-30.94 10.87,0 20.76,0.96 29.86,2.87 9.09,1.91 17.6,5.43 25.71,11.16l117.07 166.54c4.55,6.38 10.67,17.23 18.38,32.87 6.14,11.81 9.89,18.82 11.08,21.38 8.9,18.18 29.07,80.4 60.71,186.33 11.67,39.88 24.32,72.74 38.16,98.59 14.04,26.16 32.04,49.13 54.38,69.87l-59.52 185.69 -214.37 0c-9.29,0 -19.38,0 -30.26,0 -10.68,0 -22.35,0 -34.6,0l-9.29 0c6.92,7.97 12.26,14.35 16.22,18.82 12.26,14.68 21.95,27.75 28.87,38.92 6.92,11.17 15.42,28.08 25.51,50.41 1.58,3.83 3.76,8.94 6.33,15.95 7.11,4.47 10.87,6.7 11.67,7.34 4.15,4.47 11.47,11.49 21.35,21.69 15.42,15.32 29.66,34.46 42.32,56.79 14.44,24.88 30.26,59.34 47.46,103.69 -34.6,-6.38 -61.31,-11.16 -79.5,-14.04 -18.39,-3.18 -33.81,-4.78 -46.07,-4.78 -29.86,-4.15 -60.71,-6.38 -92.75,-6.38 -33.61,0 -64.66,-25.52 -93.34,-76.89 -17.41,-29.35 -34.41,-57.75 -51.03,-85.19 -32.82,-54.88 -49.63,-83.59 -50.82,-86.78zm875.07 -1277.17c-3.96,-12.12 -11.28,-22.01 -22.15,-29.99 -7.32,-5.1 -16.22,-8.62 -26.69,-11.16 -10.49,-2.56 -24.73,-3.83 -42.52,-3.83 0,-25.21 -1.98,-45.3 -6.14,-59.66 -3.96,-14.35 -10.87,-28.4 -20.36,-41.47 -9.69,-13.4 -22.55,-25.53 -38.76,-36.69l0 1232.81 88.99 0 0 -913.77c0,-8.62 0.2,-21.69 0.59,-38.6 0.39,-17.22 1.38,-28.07 2.97,-32.22 4.94,-16.28 13.44,-30.63 25.31,-43.07 12.06,-12.44 24.91,-20.1 38.76,-22.34zm-185.1 1097.54l0 -1347.35c21.55,11.81 39.15,22.97 52.6,33.5 13.64,10.53 24.72,21.69 33.61,33.5 20.37,28.4 32.43,59.03 36,91.88 9.89,0 18.98,1.28 27.09,4.15 8.1,2.87 16.61,7.34 25.51,13.72 12.85,8.62 19.57,13.4 20.36,14.04 3.56,2.87 6.53,7.02 9.29,12.12l103.23 229.08c-17.8,0 -33.61,7.34 -47.46,22.34 -10.68,11.81 -18.39,25.84 -22.94,42.12 -0.79,2.55 -1.58,7.66 -2.17,15.31 -0.59,7.98 -0.99,14.36 -1.38,19.15l0 956.52 -146.15 0 -87.6 -140.07zm438.82 452.74c-18.79,-31.91 -33.03,-55.51 -42.13,-71.15 -29.07,-47.22 -44.69,-69.87 -47.06,-67.96 0,-18.19 0.2,-35.73 0.39,-52.65 0.2,-16.91 1.19,-34.13 3.16,-51.69 2.57,-15.63 6.53,-29.03 11.47,-40.52 -6.52,-10.53 -12.65,-25.21 -18.39,-44.03 -3.96,-13.72 -6.92,-35.09 -8.7,-64.13 -1.97,-29.03 -2.96,-76.56 -2.96,-142.61 24.72,50.72 43.5,87.42 56.36,110.06 11.47,20.42 23.33,37.66 35.4,51.69 25.9,29.99 58.53,44.99 98.08,44.99 38.16,0 72.57,-15 103.22,-44.99 34.02,-35.09 51.03,-76.25 51.03,-123.79 0,-52 -4.75,-93.48 -14.04,-124.75 -7.71,-24.56 -19.38,-50.09 -35,-76.89l-56.56 -90.29c7.71,-13.72 16.22,-26.8 25.51,-39.24 7.71,-10.22 18.79,-22.34 33.02,-36.69 29.07,-28.72 64.47,-61.9 106.6,-99.54 6.32,0 25.31,23.61 57.54,70.83 22.75,33.18 50.83,76.89 84.05,131.13 14.23,23.93 28.67,47.22 43.31,70.51 2.76,2.55 5.93,4.15 9.29,4.78 3.56,0.63 7.71,0.96 12.85,0.96 6.13,0 10.49,0 12.65,0 2.38,0 4.36,0 5.94,0l0 45.94c-58.14,0 -103.82,-13.4 -137.24,-40.2 -33.42,-27.13 -54.58,-65.41 -63.49,-115.5 -3.56,-18.82 -7.51,-46.59 -12.26,-82.63 -2.96,-22.01 -5.34,-34.78 -6.92,-37.97 -20.56,18.19 -38.95,35.09 -55.77,50.41 -16.61,15.31 -30.45,28.4 -41.73,39.88 -7.31,6.69 -14.03,13.72 -19.97,20.41 -5.93,7.03 -10.29,12.13 -13.05,15l36.59 58.38c7.91,13.72 15.22,28.4 22.15,44.35 7.12,15.95 12.86,30.94 17.61,44.66 11.67,35.1 17.4,83.59 17.4,145.49 0,65.73 -21.55,119.97 -64.86,163.04 -34.41,35.09 -73.76,52.64 -118.26,52.64 -45.49,0 -83.85,-18.18 -114.7,-54.24 -14.24,-16.91 -29.07,-37.65 -44.11,-62.53 1.98,23.61 4.56,41.16 7.52,52.65 5.54,19.78 13.84,34.77 24.92,44.99l-7.52 44.03c-2.96,0 -5.93,7.97 -8.69,24.24l-1.58 23.61c20.37,-14.04 35.2,-21.06 44.49,-21.06 11.67,0 40.34,13.08 86.42,38.93 9.89,5.43 19.19,9.57 27.49,12.44 8.3,2.87 15.62,4.15 22.35,4.15 53.98,0 99.27,-15.63 135.46,-46.9 39.35,-33.5 68.62,-87.74 87.61,-162.72l14.44 -65.4c1.57,-6.07 2.56,-12.13 3.16,-17.55 0.6,-5.74 1.19,-16.59 1.98,-32.86l160.57 0 0 187.6 -48.05 0 -5.34 22.33 -12.66 62.85c-20.96,85.19 -54.58,148.04 -100.85,187.92 -39.75,34.78 -89.98,52.32 -150.69,52.32 -15.43,0 -34.81,-6.06 -57.94,-18.51 -42.92,-24.88 -68.03,-37.33 -75.94,-37.33 -7.32,0 -18,5.43 -32.43,15.95 -9.1,5.74 -16.42,9.89 -21.36,13.08 -4.95,3.19 -11.67,7.66 -19.77,14.04zm858.84 -7.34c0,-17.87 -4.55,-34.13 -13.65,-48.5 -8.9,-14.35 -19.58,-21.37 -32.04,-21.37 -11.86,0 -22.15,7.02 -30.65,21.06 -8.5,14.03 -12.65,31.27 -12.65,51.68 0,17.87 4.35,34.78 13.24,49.78 8.9,15.31 19.38,22.97 31.25,22.97 10.88,0 20.76,-7.66 30.06,-23.29 9.69,-14.35 14.44,-31.91 14.44,-52.32zm-103.04 73.06c-9.69,-21.06 -14.43,-44.99 -14.43,-71.78 0,-15.95 1.78,-30.95 5.15,-44.67 3.56,-13.4 8.69,-26.16 15.62,-37.96 14.23,-22.97 31.44,-34.46 51.61,-34.46 16.42,0 31.04,7.65 43.9,23.28l66.44 104.01c14.63,24.25 21.95,52 21.95,82.96 0,32.86 -7.71,61.25 -23.14,85.18 -15.42,23.94 -32.43,35.73 -51.42,35.73 -10.09,0 -18.99,-2.87 -26.89,-8.93 -7.91,-5.75 -15.82,-15 -23.94,-27.44l-64.86 -105.93zm295.65 -378.39l0 3.83c0,6.06 1.97,15.63 5.93,28.07 2.57,9.57 7.9,25.21 15.82,47.54 7.91,22.33 16.02,42.11 24.33,59.34 8.3,17.23 22.35,41.79 42.12,73.7 -31.63,0 -59.12,-7.34 -82.26,-21.7 -19.38,-11.8 -40.14,-32.22 -62.69,-60.93 -34.41,-43.39 -59.13,-86.47 -74.76,-129.85l-417.06 0 0 -187.6 348.84 0c7.71,26.16 17.6,50.41 29.46,72.74 10.88,20.74 25.72,42.75 44.7,66.37 18.78,23.61 35.99,41.16 51.41,52.32l-16.22 -42.12c-8.1,-22.34 -14.23,-42.12 -18.78,-59.34 -4.36,-16.91 -6.53,-29.67 -6.53,-37.65 0,-9.89 0,-18.19 0.39,-24.89 0.4,-6.37 1.58,-15.63 3.56,-27.43l455.42 0 0 -1149.55c-15.03,10.53 -27.88,22.97 -38.76,37.33 -8.7,12.44 -15.22,26.16 -19.18,40.84 -4.16,14.68 -6.13,35.09 -6.13,61.25 -38.36,0 -64.86,7.98 -79.89,24.25 -1.77,1.91 -3.56,4.15 -5.14,7.34 -1.58,3.19 -3.16,7.66 -5.14,13.09 13.05,2.55 24.32,8.61 33.61,18.82 9.09,9.89 16.42,23.28 21.95,40.2 3.36,11.81 6.13,27.44 7.9,47.54 1.98,19.78 2.97,46.26 2.97,79.44l0 637.78 -416.07 0 -21.95 -79.12 -17.41 -63.5 -40.14 -137.83c-7.32,-22.97 -15.42,-43.39 -24.13,-60.62 -8.69,-17.55 -17.99,-31.91 -28.07,-43.72 -22.35,-26.8 -46.08,-40.2 -70.8,-40.2 -13.45,0 -25.71,1.28 -36.78,3.83 -11.08,2.23 -21.56,6.7 -31.64,12.76 -17.81,9.25 -32.43,22.97 -43.51,40.84 -1.58,2.56 -3.16,5.1 -4.95,7.97 -1.78,2.88 -2.96,5.43 -3.76,7.66l-2.37 6.7c0,4.15 5.54,32.54 16.81,84.22l15.82 71.47 24.32 -32.87c16.42,-18.82 37.98,-28.4 64.67,-28.4 28.67,0 54.78,27.76 78.11,82.96 4.55,12.44 10.68,31.59 18,57.43 7.31,25.85 17,62.54 29.07,110.4l-309.68 0 0 -45.94 162.56 0 -79.7 -62.53 -30.45 -136.56c-12.07,-59.98 -18,-93.16 -18,-100.18 0,-12.44 2.77,-23.94 8.1,-34.46 4.75,-10.53 8.9,-18.19 12.86,-22.34 5.74,-10.85 13.25,-20.1 22.55,-28.72 9.29,-8.29 19.58,-15.95 30.85,-22.97 22.35,-12.44 48.25,-18.5 77.72,-18.5 31.24,0 60.71,16.59 88.2,49.45 10.08,11.8 32.23,44.66 66.64,98.27 11.28,17.22 27.49,43.07 48.85,76.57 7.32,16.91 19.97,52 38.17,105.28 18.19,53.28 28.67,85.51 31.44,96.68l316.2 0 0 -591.84c0,-50.41 -2.76,-85.82 -8.1,-106.56 -4.35,-12.44 -11.08,-21.38 -20.56,-26.48 -9.29,-5.43 -23.14,-7.97 -41.33,-7.97 0,-28.72 1.97,-50.41 5.73,-65.09 3.96,-14.68 10.49,-27.12 19.78,-37.65 9.29,-10.85 19.58,-18.82 30.66,-24.57 11.27,-5.43 24.32,-8.29 38.95,-8.29 3.36,-34.78 14.83,-65.09 34.41,-91.25 11.47,-15.95 22.34,-28.07 32.82,-36.37 10.29,-7.97 22.15,-14.04 35.6,-18.5l104.61 126.98 0 1262.81 -459.97 0zm810 -1237.6c-3.96,-12.12 -11.28,-22.01 -22.15,-29.99 -7.32,-5.1 -16.22,-8.62 -26.69,-11.16 -10.49,-2.56 -24.73,-3.83 -42.52,-3.83 0,-25.21 -1.98,-45.3 -6.14,-59.66 -3.95,-14.35 -10.87,-28.4 -20.36,-41.47 -9.69,-13.4 -22.55,-25.53 -38.76,-36.69l0 1232.81 88.99 0 0 -913.77c0,-8.62 0.2,-21.69 0.59,-38.6 0.39,-17.22 1.38,-28.07 2.97,-32.22 4.94,-16.28 13.44,-30.63 25.31,-43.07 12.06,-12.44 24.91,-20.1 38.76,-22.34zm-185.1 1097.54l0 -1347.35c21.55,11.81 39.15,22.97 52.6,33.5 13.64,10.53 24.72,21.69 33.61,33.5 20.37,28.4 32.43,59.03 36,91.88 9.89,0 18.98,1.28 27.09,4.15 8.1,2.87 16.61,7.34 25.51,13.72 12.85,8.62 19.57,13.4 20.36,14.04 3.56,2.87 6.53,7.02 9.29,12.12l103.23 229.08c-17.8,0 -33.61,7.34 -47.46,22.34 -10.68,11.81 -18.39,25.84 -22.94,42.12 -0.79,2.55 -1.58,7.66 -2.17,15.31 -0.59,7.98 -0.99,14.36 -1.38,19.15l0 956.52 -146.15 0 -87.6 -140.07zm769.26 -502.83c-9.69,-21.05 -14.43,-44.99 -14.43,-72.1 0,-15.95 1.77,-30.94 5.14,-44.66 3.56,-13.72 8.69,-26.48 15.62,-38.6 14.23,-22.97 31.24,-34.46 51.22,-34.46 16.61,0 31.24,7.65 43.9,23.28l66.24 104.97c14.63,24.25 21.95,52.01 21.95,83.28 0,32.86 -7.71,61.58 -23.14,85.5 -15.23,23.93 -32.43,36.06 -51.22,36.06 -10.09,0 -18.99,-2.88 -26.9,-8.94 -7.71,-5.74 -15.82,-14.99 -23.93,-27.44l-64.46 -106.88zm103.03 -74.02c0,-17.87 -4.55,-34.13 -13.65,-48.5 -8.89,-14.35 -19.57,-21.37 -32.03,-21.37 -11.87,0 -22.15,7.02 -30.66,21.06 -8.5,14.03 -12.65,31.27 -12.65,51.68 0,17.87 4.35,34.78 13.24,49.78 8.9,15.31 19.38,22.97 31.25,22.97 10.88,0 20.76,-7.66 30.06,-23.29 9.69,-14.35 14.44,-31.9 14.44,-52.32zm-58.34 704.78c7.71,5.75 13.45,9.25 17.41,11.16 7.31,4.47 13.64,6.7 19.18,6.7 38.36,0 72.77,-21.38 103.02,-64.44 30.47,-42.76 45.69,-92.53 45.69,-148.68 0,-59.98 -4.16,-104.34 -12.27,-132.41 -5.93,-17.55 -14.43,-30.31 -25.51,-38.6 -11.08,-7.97 -26.89,-12.13 -47.66,-12.13 0,-31.9 3.16,-56.78 9.69,-74.34 6.32,-17.55 17.01,-31.27 31.83,-41.15 8.9,-5.43 17.61,-9.89 26.1,-13.4 8.7,-3.51 17.61,-5.11 26.9,-5.11 3.56,-35.09 15.42,-66.04 35.8,-93.16 9.49,-11.8 20.56,-22.97 33.22,-32.86 15.02,-11.81 33.02,-23.61 54.18,-34.78l87.22 138.15 0 170.06 21.95 0 0 45.94 -138.23 0 0 -287.15c-10.48,7.02 -18.39,12.76 -23.54,17.23 -5.33,4.78 -11.07,11.49 -17.2,20.41 -9.49,12.44 -16.22,26.16 -20.57,41.16 -4.15,14.99 -6.33,35.41 -6.33,60.94 -16.81,0 -30.45,1.27 -40.73,3.83 -10.28,2.55 -20.17,6.7 -29.27,13.08 -9.29,6.07 -15.62,15.32 -18.99,27.76 30.27,6.38 52.21,30.94 66.25,74.02 10.48,31.59 15.62,82.63 15.62,152.82 0,69.24 -18.59,130.81 -55.77,185.06 -34.8,49.13 -75.35,73.7 -121.82,73.7 -46.66,0 -86.62,-30.63 -119.44,-91.88 -30.66,-58.07 -45.88,-117.41 -45.88,-178.03 0,-59.34 7.12,-111.03 21.16,-155.38 7.51,-23.28 15.82,-43.39 24.91,-60.93 -5.53,1.91 -10.48,4.46 -15.22,7.34 -4.55,3.18 -9.49,7.33 -14.43,12.12 -5.15,5.1 -8.7,13.08 -10.88,23.93 -2.18,10.85 -3.16,29.35 -3.16,56.15 -11.08,-8.61 -18.99,-14.03 -23.54,-15.95 -4.75,-2.23 -8.89,-3.19 -12.65,-3.19 -5.74,0 -12.07,2.55 -18.99,7.34l-1.77 0c7.51,5.74 15.22,14.03 23.14,25.52 6.72,9.26 12.06,27.12 16.02,52.97 3.96,26.16 5.93,60.62 5.93,104 0,71.47 15.82,143.26 47.66,215.36 35.6,79.44 82.06,119.32 139.81,119.32 59.12,0 107.58,-21.38 145.16,-64.13 37.57,-42.75 65.25,-99.87 83.05,-171.01 3.36,-15.63 5.54,-25.52 6.33,-29.03 0.79,-3.83 1.97,-12.12 3.36,-24.56l5.93 -69.24 134.07 0 0 187.6 -20.96 0 -3.96 30.94c-2.76,20.74 -6.52,41.16 -11.07,61.9 -20.17,81.04 -51.02,145.81 -92.75,193.34 -41.73,47.86 -95.71,71.79 -161.76,71.79 -59.12,0 -108.77,-36.06 -148.51,-107.84 -17.41,-29.04 -34.21,-57.11 -50.43,-84.55 -33.22,-55.83 -50.23,-84.55 -51.02,-86.46 -35.6,-80.09 -53.39,-161.12 -53.39,-243.12 0,-37.01 -0.79,-64.77 -2.57,-82.96 -1.77,-18.5 -5.14,-31.27 -10.09,-38.6 -4.94,-7.34 -12.06,-13.4 -21.35,-18.18 -9.1,-5.11 -23.14,-9.57 -41.93,-13.41 12.66,-22.65 21.95,-38.28 28.08,-46.9 6.13,-8.62 12.26,-15.63 18.39,-20.74 11.87,-10.21 23.34,-15.31 34.6,-15.31l7.91 0c4.35,-22.01 12.66,-40.2 25.12,-53.92 9.29,-10.85 21.55,-19.78 37.18,-26.48 20.17,-8.93 42.71,-13.4 67.43,-13.4 1.98,-0.63 20.17,24.25 54.58,74.02 11.28,16.6 28.47,41.48 51.81,75.3 -24.92,31.9 -42.72,57.74 -53.59,76.89 -8.89,15.63 -16.81,34.14 -23.93,55.51 -11.67,38.93 -17.41,83.91 -17.41,135.28 0,19.46 1.39,32.22 4.16,38.6 4.55,10.53 7.51,19.15 8.7,26.16zm390.36 -175.47l315.62 0 0 -537.93c-6.92,5.1 -14.04,10.85 -21.36,17.55 -7.31,7.02 -13.44,13.72 -18.39,20.74 -8.89,11.81 -15.42,25.52 -19.38,40.84 -4.15,15.63 -6.13,36.37 -6.13,62.53 -38.36,0 -64.86,7.97 -79.89,23.93 -4.56,4.15 -7.91,10.53 -10.29,19.15 27.09,5.74 45.87,25.53 56.75,59.34 3.76,11.81 6.73,30.31 8.9,55.2 2.17,25.21 3.16,56.78 3.16,95.08l-229.01 0 0 -45.94 200.52 0 -72.37 -119.01c0,-28.71 1.98,-50.09 5.74,-64.44 3.96,-14.68 10.68,-27.12 20.17,-37.65 9.49,-10.53 19.57,-18.51 30.65,-23.61 11.08,-5.42 23.93,-7.97 38.56,-7.97 3.56,-36.06 15.03,-67.32 34.6,-93.48 8.3,-11.8 19.38,-23.29 33.03,-34.13 13.64,-10.85 31.64,-22.01 53.78,-33.18l87.21 138.15 0 652.46 -431.89 0 0 -187.6zm217.14 492.93c0,-17.87 -4.55,-34.13 -13.64,-48.5 -8.9,-14.35 -19.58,-21.37 -32.04,-21.37 -11.86,0 -22.15,7.02 -30.66,21.06 -8.49,14.03 -12.65,31.27 -12.65,51.68 0,17.87 4.35,34.78 13.25,49.78 8.9,15.31 19.38,22.97 31.24,22.97 10.89,0 20.76,-7.66 30.07,-23.29 9.69,-14.35 14.43,-31.91 14.43,-52.32zm-103.03 73.06c-9.69,-21.06 -14.43,-44.99 -14.43,-71.78 0,-15.95 1.78,-30.95 5.14,-44.67 3.56,-13.4 8.7,-26.16 15.62,-37.96 14.24,-22.97 31.44,-34.46 51.42,-34.46 16.61,0 31.24,7.65 43.9,23.28l66.44 104.01c14.63,24.25 21.95,52 21.95,82.96 0,32.86 -7.71,61.25 -23.14,85.18 -15.42,23.94 -32.43,35.73 -51.41,35.73 -9.89,0 -18.98,-2.87 -26.89,-8.93 -7.71,-5.75 -15.82,-15 -23.93,-27.44l-64.67 -105.93zm832.54 -1941.42c0,-17.87 -4.55,-34.13 -13.64,-48.5 -8.89,-14.35 -19.58,-21.37 -32.04,-21.37 -11.86,0 -22.15,7.02 -30.66,21.06 -8.49,14.03 -12.65,31.27 -12.65,51.68 0,17.87 4.35,34.78 13.25,49.78 8.9,15.31 19.38,22.97 31.24,22.97 10.89,0 20.77,-7.66 30.07,-23.29 9.69,-14.35 14.43,-31.9 14.43,-52.32zm172.05 437.42c-16.42,10.85 -29.87,23.29 -40.73,37.97 -9.49,12.76 -16.22,26.81 -20.57,41.79 -4.15,15.32 -6.33,36.06 -6.33,61.9 -21.35,0 -37.97,1.91 -49.44,5.75 -11.47,4.15 -21.35,10.53 -29.86,19.78 -4.95,5.43 -8.51,11.81 -10.88,19.78 20.17,5.74 36.98,23.61 50.23,54.24 6.52,15.95 11.47,34.13 14.83,53.92 3.36,19.78 4.94,46.58 4.94,80.08 -37.96,0 -70.59,10.21 -97.68,30.31 -27.1,20.1 -52.6,52.01 -76.14,95.72 -43.12,81.36 -64.66,172.6 -64.66,273.43l0 163.35 326.29 0 0 -938.02zm116.28 1125.62l-382.46 0 -88.6 -140.07 0 -210.57c0,-111.34 23.94,-212.8 71.59,-303.74 24.33,-45.94 49.24,-80.71 74.36,-103.69 27.48,-25.52 56.36,-38.28 86.62,-38.28 -0.79,-11.16 -1.58,-22.65 -2.57,-34.13 -0.98,-11.81 -3.16,-21.38 -6.73,-28.72 -5.53,-13.08 -12.45,-22.65 -20.95,-28.4 -8.5,-5.43 -20.57,-8.29 -36.2,-8.29 0,-28.4 1.98,-49.77 5.74,-64.13 3.96,-14.68 10.68,-27.12 20.17,-37.65 9.29,-10.21 19.58,-18.5 30.46,-23.93 10.68,-5.43 23.53,-8.29 38.17,-8.29 3.56,-35.09 15.42,-66.04 35.59,-93.16 11.87,-16.27 24.92,-30.63 38.96,-43.07 13.84,-12.76 26.3,-20.74 36.98,-24.56l98.88 141.02 0 1049.68zm-204.09 -329.26l-148.31 0c0,-46.59 2.76,-83.91 8.5,-112.31 5.74,-28.07 15.02,-52.65 27.88,-73.06 23.93,-39.88 49.64,-59.66 77.52,-59.66l34.4 0 0 245.03zm-187.26 -1159.43c-9.69,-21.37 -14.44,-44.66 -14.44,-70.19 0,-33.18 7.12,-61.58 21.15,-84.87 14.05,-23.29 31.25,-35.09 51.42,-35.09 16.61,0 31.25,7.65 44.1,23.28l66.64 104.97c14.63,24.25 21.95,52.01 21.95,83.28 0,33.18 -7.72,61.58 -23.14,85.82 -15.42,23.93 -32.62,36.05 -51.61,36.05 -10.09,0 -18.98,-3.19 -26.89,-8.93 -8.1,-6.06 -16.02,-15.32 -24.13,-27.76l-65.05 -106.56zm202.69 -1.28c-9.49,-21.06 -14.23,-44.99 -14.23,-71.46 0,-16.28 1.78,-31.27 5.14,-44.67 3.36,-13.72 8.7,-26.48 15.42,-38.28 14.24,-22.97 31.24,-34.46 51.02,-34.46 16.42,0 31.05,7.65 43.71,23.28l65.84 104.34c14.44,24.25 21.76,51.68 21.76,82.96 0,32.86 -7.71,61.25 -22.95,84.87 -15.22,23.93 -32.23,36.05 -51.02,36.05 -9.89,0 -18.78,-2.87 -26.69,-8.93 -7.71,-5.75 -15.62,-15 -23.74,-27.44l-64.27 -106.25zm103.23 -73.06c0,-17.87 -4.55,-34.13 -13.65,-48.5 -8.89,-14.35 -19.57,-21.37 -32.03,-21.37 -11.87,0 -22.15,7.02 -30.65,21.06 -8.5,14.03 -12.66,31.27 -12.66,51.68 0,17.87 4.35,34.78 13.25,49.78 8.89,15.31 19.38,22.97 31.25,22.97 10.87,0 20.76,-7.66 30.06,-23.29 9.69,-14.35 14.43,-31.9 14.43,-52.32zm997.07 1563.03l-739.2 0c0.39,-2.56 -13.84,-29.35 -42.72,-80.09 -28.67,-51.05 -42.72,-77.53 -41.93,-79.44 5.15,-24.25 9.89,-43.71 14.63,-58.71 6.53,-21.06 15.03,-41.79 25.51,-62.53 17.21,-32.87 36.59,-52.01 58.34,-57.75 0,-16.28 0.79,-30.95 2.57,-44.03 1.77,-13.09 4.55,-26.81 8.3,-41.16 6.52,-23.61 15.42,-40.84 26.49,-52 11.08,-10.85 26.5,-16.28 46.08,-16.28 0,31.59 1.58,54.88 4.55,69.56 3.16,14.68 8.7,25.21 16.81,32.22 3.56,2.23 11.08,4.15 22.75,5.43 11.47,1.28 23.34,1.91 35.2,1.91 7.71,0 14.05,0 18.6,0 4.74,0 7.9,0 9.89,0l-97.5 -137.51c6.93,-9.89 16.02,-22.97 27.49,-39.24 11.47,-16.28 19.78,-27.44 25.11,-33.82l40.15 -51.37c11.08,-15.63 25.51,-44.99 43.31,-88.06l39.94 -87.09c6.53,20.09 14.24,34.46 23.14,43.06 5.93,5.75 16.02,11.49 30.84,16.91 7.71,2.56 19.19,6.06 34.61,10.53 5.53,0.96 13.64,2.87 24.32,5.43 87.22,17.55 147.53,49.78 180.75,96.35 27.48,36.37 54.78,72.43 82.26,108.8 36.19,56.16 54.38,110.71 54.38,163.68l25.31 0 0 45.94 -129.72 0c0,-73.38 -4.15,-132.09 -12.26,-176.75 -8.1,-44.35 -21.16,-79.76 -39.35,-105.6 -29.27,-40.53 -84.44,-68.92 -165.13,-84.87 -25.11,-5.1 -46.07,-10.85 -62.69,-17.87 -11.07,-3.51 -20.17,-7.66 -26.89,-11.49 -6.72,-4.15 -13.45,-9.25 -19.97,-15.63l-16.22 36.05c-9.69,21.69 -18.59,40.84 -26.7,57.43 -8.1,16.59 -15.42,29.35 -21.95,37.97 -4.75,6.06 -11.67,14.68 -20.96,25.84 -2.96,3.51 -7.71,8.94 -13.85,15.63 75.35,0 137.44,3.19 186.48,9.26 48.85,6.38 79.89,15.31 92.95,27.43 34.41,31.27 51.61,77.22 51.61,137.84l0 64.77c-257.07,0 -393.13,-6.38 -408.16,-19.46 -20.76,-16.28 -32.82,-46.91 -36.39,-91.57 -7.31,6.06 -13.44,17.87 -18.39,35.09 -3.16,11.81 -5.54,26.17 -6.92,42.76 -1.58,16.59 -2.37,39.24 -2.37,67.64 -16.22,0 -28.87,3.19 -38.17,9.89 -9.09,6.69 -17.8,17.55 -26.3,33.5 -8.5,17.55 -16.41,38.6 -23.34,63.81l784.69 0 0 187.6z"/>
    <path class="fil1" d="M6391.34 15874.84c0,-17.87 -4.55,-34.14 -13.65,-48.5 -8.89,-14.35 -19.57,-21.38 -32.03,-21.38 -11.87,0 -22.15,7.03 -30.65,21.06 -8.5,14.04 -12.66,31.27 -12.66,51.69 0,17.87 4.36,34.78 13.25,49.77 8.89,15.32 19.38,22.97 31.25,22.97 10.87,0 20.76,-7.65 30.06,-23.28 9.69,-14.36 14.43,-31.91 14.43,-52.32zm-103.03 71.46c-9.69,-21.37 -14.43,-44.99 -14.43,-70.5 0,-33.5 7.11,-61.9 21.16,-85.19 14.03,-23.61 31.04,-35.41 51.21,-35.41 16.62,0 31.25,7.97 43.9,23.61l66.45 105.29c14.83,24.56 22.15,52.32 22.15,83.91 0,33.18 -7.71,61.9 -23.14,85.82 -15.42,24.25 -32.63,36.37 -51.61,36.37 -9.89,0 -18.99,-2.87 -26.9,-8.93 -7.91,-6.07 -15.82,-15.32 -23.93,-27.76l-64.86 -107.2zm201.71 0c-9.69,-21.37 -14.43,-45.62 -14.43,-72.42 0,-16.6 1.78,-31.59 5.15,-45.31 3.56,-13.72 8.69,-26.81 15.62,-38.6 14.23,-23.29 31.44,-34.78 51.61,-34.78 16.42,0 31.04,7.97 43.9,23.61l66.44 105.29c14.63,24.56 21.95,52.32 21.95,83.91 0,33.18 -7.71,61.9 -23.13,85.82 -15.42,24.25 -32.43,36.37 -51.42,36.37 -10.09,0 -18.99,-2.87 -26.89,-8.93 -7.91,-6.07 -15.82,-15.32 -23.94,-27.76l-64.86 -107.2zm103.04 -71.46c0,-17.87 -4.56,-34.14 -13.65,-48.5 -8.9,-14.35 -19.58,-21.38 -32.04,-21.38 -11.86,0 -22.15,7.03 -30.65,21.06 -8.5,14.04 -12.65,31.27 -12.65,51.69 0,17.87 4.35,34.78 13.24,49.77 8.9,15.32 19.38,22.97 31.25,22.97 10.88,0 20.76,-7.65 30.06,-23.28 9.69,-14.36 14.44,-31.91 14.44,-52.32zm97.29 -644.16l-162.55 0 0 -394.66c-6.92,5.1 -14.04,10.84 -21.36,17.87 -7.31,6.69 -13.44,13.4 -18.39,20.41 -8.9,11.81 -15.42,25.53 -19.38,40.84 -4.15,15.63 -6.13,36.37 -6.13,62.53 -38.36,0 -64.86,7.98 -79.89,24.25 -4.55,4.15 -7.9,10.85 -10.28,19.47 27.09,5.42 45.87,25.21 56.75,59.34 3.76,11.49 6.73,29.99 8.89,54.88 2.18,25.21 3.17,56.78 3.17,95.08l-229.01 0 0 -45.94 200.52 0 -72.37 -119.01c0,-28.71 1.97,-50.09 5.73,-64.77 3.96,-14.68 10.69,-27.12 20.17,-37.65 9.49,-10.53 19.58,-18.5 30.66,-23.93 11.08,-5.1 23.93,-7.97 38.56,-7.97 3.56,-35.73 15.02,-67 34.6,-93.16 11.47,-15.95 19.97,-26.81 25.71,-32.54 11.87,-11.81 28.08,-22.66 48.25,-32.54l100.06 132.09 0 279.49 46.28 0 0 45.94zm0 331.18l-478.18 0 0 -187.6 478.18 0 0 187.6zm419.24 0l-478.57 0 0 -187.6 478.57 0 0 187.6zm0 -331.18l-161.76 0 0 -394.35c-6.92,5.1 -14.04,10.85 -21.36,17.55 -7.31,7.02 -13.44,13.72 -18.38,20.74 -8.9,11.81 -15.43,25.52 -19.39,40.84 -4.15,15.63 -6.13,36.37 -6.13,62.53 -38.75,0 -65.85,7.97 -80.88,23.93 -4.75,4.15 -8.11,10.53 -10.48,19.15 27.08,5.74 45.87,25.53 56.75,59.34 3.76,11.81 6.72,30.31 8.89,55.2 2.18,25.21 3.17,56.78 3.17,95.08l-229.01 0 0 -45.94 200.52 0 -72.37 -119.01c0,-28.71 1.97,-50.09 5.73,-64.44 3.96,-14.68 10.69,-27.12 20.17,-37.65 9.49,-10.53 19.58,-18.51 30.66,-23.61 11.08,-5.42 23.93,-7.97 38.56,-7.97 3.56,-36.06 15.22,-67.32 34.8,-93.48 11.67,-16.27 20.36,-27.12 26.3,-32.54 11.87,-12.12 28.28,-22.97 48.65,-32.86l100.07 132.09 0 279.49 45.48 0 0 45.94zm-261.43 636.5c0,-17.87 -4.55,-34.13 -13.65,-48.5 -8.89,-14.35 -19.57,-21.37 -32.03,-21.37 -11.87,0 -22.15,7.02 -30.66,21.06 -8.49,14.03 -12.65,31.27 -12.65,51.68 0,17.87 4.35,34.78 13.25,49.78 8.89,15.31 19.38,22.97 31.24,22.97 10.88,0 20.76,-7.66 30.06,-23.29 9.69,-14.35 14.44,-31.91 14.44,-52.32zm-103.03 73.06c-9.69,-21.06 -14.43,-44.99 -14.43,-71.78 0,-15.95 1.77,-30.95 5.14,-44.67 3.56,-13.4 8.7,-26.16 15.62,-37.96 14.23,-22.97 31.44,-34.46 51.42,-34.46 16.61,0 31.24,7.65 43.9,23.28l66.44 104.01c14.63,24.25 21.95,52 21.95,82.96 0,32.86 -7.71,61.25 -23.14,85.18 -15.42,23.94 -32.43,35.73 -51.41,35.73 -9.89,0 -18.99,-2.87 -26.9,-8.93 -7.71,-5.75 -15.82,-15 -23.93,-27.44l-64.66 -105.93zm304.74 -565.99l550.55 0c-6.13,-23.93 -14.24,-45.31 -24.13,-63.81 -7.71,-14.04 -16.42,-24.57 -25.71,-31.27 -9.49,-6.69 -21.75,-10.21 -37.18,-10.21 0,-34.13 -1.38,-60.62 -3.76,-79.44 -2.57,-18.5 -6.73,-34.46 -12.46,-47.54 -3.16,-6.69 -4.94,-10.84 -5.34,-12.12 -2.37,-4.15 -4.75,-7.02 -7.51,-8.29 -5.74,37.01 -18.79,65.09 -38.96,84.23 -9.29,8.61 -20.37,15.31 -33.41,19.78 -12.86,4.78 -28.08,7.02 -45.49,7.02 -35.2,0 -64.67,-19.15 -88,-57.11 -23.54,-38.29 -35.2,-86.15 -35.2,-143.9 0,-59.66 12.46,-109.44 37.58,-149 24.91,-39.88 52.79,-59.66 83.25,-59.66 29.86,0 56.56,12.13 80.29,36.69 8.1,7.98 14.62,14.35 19.77,18.5 2.17,1.92 3.76,2.56 4.55,1.92 -4.16,-7.98 -7.91,-15 -11.08,-20.42 -8.5,-14.03 -19.58,-30.63 -33.61,-49.77 -33.22,-47.54 -69.02,-71.15 -107.19,-71.15 -56.16,0 -101.25,28.71 -135.26,85.82 -34.01,57.11 -51.02,112.62 -51.02,166.54 0,56.47 3.56,105.92 10.68,148.03 1.98,11.81 3.96,22.66 5.93,32.54 1.98,9.89 4.75,15 8.31,15l-1.18 45.94 -104.42 0 0 -45.94 71.79 0 -8.11 -34.46c-7.71,-43.72 -11.47,-97.63 -11.47,-161.76 0,-66.36 19.97,-133.04 59.72,-199.72 39.74,-66.68 91.55,-99.87 155.42,-99.87 45.29,0 87.42,27.76 126.37,83.28l104.41 157.93c30.26,51.69 45.29,118.69 45.29,201l-47.46 0c0,-23.93 -2.57,-42.75 -7.51,-56.47 -4.95,-14.04 -12.66,-26.48 -23.14,-37.97 -19.38,-20.1 -40.54,-29.99 -63.68,-29.99 -23.14,0 -43.9,15 -62.49,45.31 -8.5,13.71 -15.23,28.71 -20.17,44.66 -6.13,19.15 -9.29,37.01 -9.29,53.6 0,11.16 1.38,22.01 4.16,32.54 3.76,1.27 7.91,1.91 12.06,1.91 17.4,0 34.6,-6.06 51.61,-18.19 22.35,-16.27 41.13,-40.84 56.17,-73.7 14.23,9.25 28.87,31.58 43.9,66.36 5.15,11.17 11.27,28.07 18.59,50.41 17.01,0 30.06,2.87 39.16,8.94 9.09,5.74 16.81,15.95 23.13,30.31 6.33,14.35 11.47,31.27 15.03,49.77 3.76,18.82 5.54,39.56 5.54,62.53 21.16,5.75 40.14,24.57 56.56,57.11 8.5,15.63 16.02,33.82 22.54,54.87 6.73,21.06 13.65,49.78 20.96,86.79l-679.08 0 0 -187.6zm1441.82 -143.57l-144.76 0c0,-52.32 1.58,-93.81 4.95,-124.43 3.36,-30.31 7.91,-51.69 13.64,-64.13 13.25,-26.48 30.26,-39.88 51.22,-39.88 21.35,0 38.96,13.4 52.79,39.88 14.84,25.21 22.15,53.6 22.15,85.19l0 103.37zm-269.93 696.17c-18.99,-32.87 -33.23,-57.11 -42.92,-72.75 -29.07,-48.49 -44.29,-72.42 -45.87,-71.78 0,-47.86 1.58,-80.4 4.35,-97.31 2.96,-17.23 6.52,-30.94 10.68,-40.84 -6.52,-10.53 -12.66,-25.21 -18.39,-44.03 -3.96,-13.72 -6.92,-35.09 -8.7,-64.13 -1.97,-29.03 -2.96,-76.57 -2.96,-142.62 21.55,45.63 40.14,81.68 55.57,108.16 12.86,22.34 24.72,39.88 36,52.65 13.44,15.63 28.87,27.12 46.07,34.78 17.21,7.34 36,11.16 56.56,11.16 20.37,0 38.17,-2.87 53.19,-8.93 15.03,-5.75 31.25,-15.64 48.65,-29.35l-99.87 0 -87.01 -138.47 0 -269.91c0,-80.41 13.05,-146.45 38.96,-197.5 5.14,-10.21 14.03,-24.25 27.08,-42.75 12.86,-18.5 29.67,-40.84 50.24,-67.96 16.81,-21.06 29.86,-43.07 39.55,-65.41 11.66,-26.16 23.13,-63.17 34.4,-110.71 19.97,83.27 43.51,147.4 70.4,192.07 27.48,31.9 54.98,63.17 82.66,94.12 25.91,39.24 46.67,71.46 62.5,96.99 30.06,47.86 45.08,91.88 45.08,132.41l39.16 0 0 45.94 -137.64 0c0,-62.53 -2.56,-112.94 -7.51,-151.23 -4.95,-37.97 -13.25,-70.5 -24.72,-96.99 -7.71,-17.55 -31.44,-49.13 -71.19,-95.08 -24.92,-28.4 -44.49,-62.22 -58.73,-101.46 -12.46,32.54 -31.05,64.44 -55.57,95.71 -41.13,52.32 -65.65,87.1 -73.56,104.01 -21.75,44.34 -32.63,100.18 -32.63,167.5l0 223.02 236.12 0c0,57.75 -5.15,104.65 -15.42,140.06 -10.09,35.41 -25.71,63.49 -46.47,84.23 -31.05,30.31 -70,45.62 -117.07,45.62 -46.47,0 -86.02,-18.19 -118.85,-54.24 -14.24,-16.28 -29.07,-37.01 -44.49,-62.53 1.77,23.61 4.35,41.15 7.51,52.64 5.34,19.78 13.64,34.78 24.92,44.99l-7.52 42.12c-3.16,0 -6.13,8.29 -8.69,24.57l-1.79 22.97c19.19,-13.72 34.81,-20.74 46.68,-20.74 13.24,0 35.2,9.89 66.44,29.99 29.27,18.19 66.25,27.44 110.94,27.44 43.91,0 86.22,-30.31 126.96,-90.61 21.55,-30.31 37.78,-68.59 48.45,-114.86 10.88,-45.94 16.22,-103.06 16.22,-171.65l137.64 0 0 185.69 -21.95 0c0,57.43 -7.32,110.71 -21.55,159.52 -12.66,43.07 -30.85,82.63 -54.38,118.05 -46.47,67.64 -94.53,101.47 -144.36,101.47 -26.29,0 -48.85,-2.56 -67.83,-7.66 -18.78,-5.1 -36.78,-13.09 -53.78,-23.61 -28.28,-17.86 -46.67,-26.8 -55.18,-26.8 -8.9,0 -20.37,5.43 -34.6,15.95l-41.73 28.07zm455.03 -552.59l315.61 0 0 -537.93c-6.92,5.1 -14.04,10.85 -21.36,17.55 -7.31,7.02 -13.44,13.72 -18.39,20.74 -8.89,11.81 -15.42,25.52 -19.38,40.84 -4.15,15.63 -6.13,36.37 -6.13,62.53 -38.36,0 -64.86,7.97 -79.89,23.93 -4.55,4.15 -7.91,10.53 -10.29,19.15 27.09,5.74 45.88,25.53 56.75,59.34 3.76,11.81 6.73,30.31 8.9,55.2 2.17,25.21 3.16,56.78 3.16,95.08l-229 0 0 -45.94 200.51 0 -72.37 -119.01c0,-28.71 1.98,-50.09 5.74,-64.44 3.96,-14.68 10.68,-27.12 20.17,-37.65 9.49,-10.53 19.57,-18.51 30.65,-23.61 11.08,-5.42 23.93,-7.97 38.56,-7.97 3.56,-36.06 15.03,-67.32 34.6,-93.48 8.31,-11.8 19.38,-23.29 33.03,-34.13 13.64,-10.85 31.64,-22.01 53.78,-33.18l87.22 138.15 0 652.46 -431.89 0 0 -187.6zm217.13 492.93c0,-17.87 -4.55,-34.13 -13.64,-48.5 -8.89,-14.35 -19.58,-21.37 -32.04,-21.37 -11.86,0 -22.15,7.02 -30.65,21.06 -8.5,14.03 -12.66,31.27 -12.66,51.68 0,17.87 4.35,34.78 13.25,49.78 8.9,15.31 19.38,22.97 31.24,22.97 10.89,0 20.77,-7.66 30.07,-23.29 9.69,-14.35 14.43,-31.91 14.43,-52.32zm-103.02 73.06c-9.69,-21.06 -14.44,-44.99 -14.44,-71.78 0,-15.95 1.78,-30.95 5.14,-44.67 3.56,-13.4 8.7,-26.16 15.62,-37.96 14.24,-22.97 31.44,-34.46 51.42,-34.46 16.61,0 31.24,7.65 43.9,23.28l66.44 104.01c14.63,24.25 21.95,52 21.95,82.96 0,32.86 -7.71,61.25 -23.14,85.18 -15.42,23.94 -32.43,35.73 -51.41,35.73 -9.89,0 -18.98,-2.87 -26.89,-8.93 -7.71,-5.75 -15.82,-15 -23.93,-27.44l-64.66 -105.93zm638.93 -1428.7c-3.96,-11.81 -11.27,-21.7 -22.15,-29.67 -7.32,-5.1 -16.22,-8.62 -26.7,-11.16 -10.48,-2.56 -24.72,-3.83 -42.51,-3.83 0,-25.21 -1.98,-45.31 -6.14,-59.66 -3.96,-14.35 -10.88,-28.4 -20.37,-41.47 -9.69,-13.4 -22.54,-25.53 -38.75,-36.69l0 1045.21 88.99 0 0 -726.16c0,-8.93 0.2,-21.69 0.59,-38.93 0.39,-16.91 1.38,-27.75 2.96,-32.22 4.95,-15.95 13.45,-30.31 25.32,-42.75 12.06,-12.44 24.91,-20.1 38.75,-22.65zm-185.09 910.25l0 -1159.74c21.55,11.8 39.15,22.97 52.6,33.5 13.64,10.53 24.72,21.69 33.61,33.5 20.37,28.4 32.43,59.02 36,91.88 9.88,0 18.98,1.28 27.09,4.15 8.3,2.87 16.81,7.34 25.7,13.72 12.66,8.62 19.58,13.4 20.17,14.04 3.56,2.87 6.73,7.02 9.29,12.12l103.43 229.08c-17.8,0 -33.62,7.34 -47.46,22.34 -10.88,11.81 -18.59,25.84 -23.14,42.12 -0.79,2.55 -1.58,7.65 -2.17,15.31 -0.59,7.97 -0.99,14.35 -1.39,19.15l0 768.91 -146.14 0 -87.6 -140.07zm151.87 -1479.44c-12.26,-17.55 -28.47,-30.31 -48.65,-37.97 -20.37,-7.65 -35.2,-18.5 -44.89,-32.54 -9.69,-14.35 -14.43,-31.27 -14.43,-50.72 0,-20.74 4.75,-37.01 14.04,-48.82 9.49,-11.8 24.13,-17.55 44.1,-17.55l17.2 0c-0.39,-8.93 -2.17,-15.63 -5.34,-20.74 -2.96,-4.78 -6.92,-8.29 -11.27,-9.57 -4.55,-1.59 -11.67,-2.23 -21.35,-2.23 -16.22,0 -31.05,10.53 -44.5,31.91 -13.45,21.37 -20.17,40.2 -20.17,56.79l0 40.52 17.01 50.72c-20.76,0 -36.78,1.28 -48.25,3.83 -11.68,2.55 -21.75,6.69 -30.86,12.76 -9.09,6.06 -16.42,14.03 -22.15,23.61l219.5 0zm69.61 -99.22c4.75,7.97 8.11,19.15 10.49,33.18 2.37,14.04 4.74,36.69 6.92,67.96l-21.55 -0.96 -54.78 -15 80.29 101.78c10.88,16.28 19.77,31.59 26.69,46.26 7.12,14.35 13.65,32.22 19.77,53.6l-315.01 0 -87.02 -140.7c6.13,-32.54 13.45,-57.43 22.15,-74.34 8.69,-16.91 19.77,-30.31 33.21,-39.56 9.89,-6.38 19.38,-11.16 28.28,-14.68 8.7,-3.51 14.44,-5.1 17.21,-5.1l0 -44.03c0,-30.94 9.49,-60.94 28.67,-90.61 19.18,-29.67 40.93,-44.66 65.45,-44.66 4.16,0 10.29,0.96 18,3.19 7.71,2.23 16.22,5.1 25.51,8.94l95.71 154.74z"/>
   </g>
   <path class="fil1" d="M450.04 17648.37l-98.78 0 -47.22 156.86c-14.11,49.93 -26.6,100.41 -36.36,147.09l-1.63 0c-9.22,-47.76 -21.16,-96.61 -34.73,-147.09l-45.05 -156.86 -99.33 0 -28.22 417.38 73.27 0 8.15 -160.66c2.71,-51.56 5.43,-113.44 6.51,-166.08l1.63 0c9.77,51.02 22.8,107.47 36.37,154.69l46.13 166.08 60.78 0 51.02 -168.8c14.11,-46.67 29.31,-102.04 41.26,-151.97l1.63 0c-0.55,52.65 2.17,109.1 4.34,164.46l7.6 162.28 76.53 0 -23.88 -417.38zm315.88 235.01c0,-66.22 -25.51,-125.92 -119.4,-125.92 -47.22,0 -84.68,13.56 -104.75,25.51l15.2 52.1c19.54,-11.94 46.67,-20.62 74.36,-20.62 43.96,0 54.27,22.8 54.27,52.65 -96.07,0 -165,36.37 -165,113.99 0,48.85 34.73,90.64 90.64,90.64 33.66,0 62.96,-13.57 80.33,-37.46l1.63 0 4.89 31.48 72.19 0c-3.26,-18.45 -4.35,-45.05 -4.35,-71.64l0 -110.73zm-78.16 78.7c0,38.53 -31.48,52.11 -50.47,52.11 -20.08,0 -38,-12.49 -38,-41.26 0,-43.96 45.05,-54.27 88.47,-54.27l0 43.42zm173.68 -164.46c24.42,-41.25 51.02,-102.04 68.39,-159.02l-74.36 5.96c-7.6,50.48 -23.88,109.64 -41.26,157.95l47.22 -4.89zm374.51 87.38c0,-89.01 -42.33,-128.09 -96.07,-128.09 -26.06,0 -59.17,11.4 -80.88,42.88l-1.09 0 0 -170.43 -80.33 0 0 436.38 80.33 0 0 -183.46c0,-45.05 30.94,-59.16 51.02,-59.16 34.74,0 46.68,29.85 46.68,68.39l0 174.22 80.33 0 0 -180.74zm297.42 -1.63c0,-66.22 -25.51,-125.92 -119.4,-125.92 -47.22,0 -84.68,13.56 -104.75,25.51l15.2 52.1c19.54,-11.94 46.67,-20.62 74.36,-20.62 43.96,0 54.27,22.8 54.27,52.65 -96.07,0 -165,36.37 -165,113.99 0,48.85 34.73,90.64 90.64,90.64 33.66,0 62.96,-13.57 80.33,-37.46l1.63 0 4.89 31.48 72.19 0c-3.26,-18.45 -4.35,-45.05 -4.35,-71.64l0 -110.73zm-78.16 78.7c0,38.53 -31.48,52.11 -50.47,52.11 -20.08,0 -38,-12.49 -38,-41.26 0,-43.96 45.05,-54.27 88.47,-54.27l0 43.42zm409.78 -332.72l-80.33 0 0 163.37 -1.09 0c-11.94,-20.62 -37.45,-35.27 -72.73,-35.27 -65.13,0 -122.12,56.45 -122.12,159.57 0,91.72 48.85,154.69 117.24,154.69 36.9,0 69.47,-19 85.21,-48.85l1.63 0 3.8 42.88 70.56 0c-1.09,-22.25 -2.17,-55.91 -2.17,-86.3l0 -350.08zm-80.33 312.63c0,47.76 -30.4,65.13 -54.27,65.13 -38,0 -60.79,-36.36 -60.79,-91.18 0,-52.65 20.62,-94.99 61.88,-94.99 26.59,0 53.18,21.71 53.18,65.68l0 55.36zm463.53 -293.63l-100.95 0 -118.32 417.38 81.42 0 28.76 -110.18 111.81 0 29.85 110.18 84.13 0 -116.69 -417.38zm-97.7 246.41l24.97 -95.53c5.97,-24.42 13.02,-58.62 18.45,-84.67l1.63 0c5.43,25.51 12.48,59.16 18.99,85.22l24.97 94.98 -89.02 0zm344.65 -94.98l0 -170.43 -80.33 0 0 349.54c0,30.94 -1.08,65.13 -2.16,86.84l68.38 0 3.8 -41.79 1.63 0c18.99,34.2 47.76,47.77 81.41,47.77 62.42,0 123.75,-53.19 123.75,-162.83 0,-90.09 -44.51,-151.97 -111.26,-151.97 -38.53,0 -66.76,16.28 -84.13,42.88l-1.09 0zm0 86.29c0,-39.07 26.6,-65.13 54.28,-65.13 41.25,0 61.33,40.17 61.33,91.73 0,58.62 -22.26,94.99 -61.33,94.99 -32.02,0 -54.28,-28.23 -54.28,-62.42l0 -59.17zm508.56 -122.66l-80.33 0 0 186.17c0,34.2 -23.34,56.45 -49.39,56.45 -33.11,0 -46.13,-28.76 -46.13,-74.36l0 -168.26 -80.33 0 0 180.2c0,90.64 39.07,128.1 96.61,128.1 46.68,0 74.36,-26.6 86.84,-46.13l1.63 0 3.8 40.16 70.01 0c-1.08,-25.51 -2.71,-56.45 -2.71,-92.27l0 -210.05zm492.84 -115.06l-80.33 0 0 252.02c0,74.27 -26.6,105.12 -70.02,105.12 -41.25,0 -68.93,-31.94 -68.93,-105.12l0 -252.02 -80.33 0 0 244.97c0,122.48 53.19,178.39 147.09,178.39 94.44,0 152.52,-56.99 152.52,-178.93l0 -244.42zm156.31 151.43l0 -170.43 -80.33 0 0 349.54c0,30.94 -1.08,65.13 -2.16,86.84l68.38 0 3.8 -41.79 1.63 0c18.99,34.2 47.76,47.77 81.41,47.77 62.42,0 123.75,-53.19 123.75,-162.83 0,-90.09 -44.51,-151.97 -111.26,-151.97 -38.53,0 -66.76,16.28 -84.13,42.88l-1.09 0zm0 86.29c0,-39.07 26.6,-65.13 54.28,-65.13 41.25,0 61.33,40.17 61.33,91.73 0,58.62 -22.26,94.99 -61.33,94.99 -32.02,0 -54.28,-28.23 -54.28,-62.42l0 -59.17zm479.25 -2.71c0,-66.22 -25.51,-125.92 -119.4,-125.92 -47.22,0 -84.68,13.56 -104.75,25.51l15.2 52.1c19.54,-11.94 46.67,-20.62 74.36,-20.62 43.96,0 54.27,22.8 54.27,52.65 -96.07,0 -165,36.37 -165,113.99 0,48.85 34.73,90.64 90.64,90.64 33.66,0 62.96,-13.57 80.33,-37.46l1.63 0 4.89 31.48 72.19 0c-3.26,-18.45 -4.35,-45.05 -4.35,-71.64l0 -110.73zm-78.16 78.7c0,38.53 -31.48,52.11 -50.47,52.11 -20.08,0 -38,-12.49 -38,-41.26 0,-43.96 45.05,-54.27 88.47,-54.27l0 43.42zm232.85 -281.15c0,-24.97 -17.37,-42.88 -43.42,-42.88 -24.97,0 -42.88,17.91 -42.88,42.88 0,24.42 17.37,42.87 42.88,42.87 24.96,0 43.42,-16.82 43.42,-42.87zm-2.72 82.49l-80.33 0 0 302.32 80.33 0 0 -302.32zm332.17 -134.06l-80.33 0 0 163.37 -1.09 0c-11.94,-20.62 -37.45,-35.27 -72.73,-35.27 -65.13,0 -122.12,56.45 -122.12,159.57 0,91.72 48.85,154.69 117.24,154.69 36.9,0 69.47,-19 85.21,-48.85l1.63 0 3.8 42.88 70.56 0c-1.09,-22.25 -2.17,-55.91 -2.17,-86.3l0 -350.08zm-80.33 312.63c0,47.76 -30.4,65.13 -54.27,65.13 -38,0 -60.79,-36.36 -60.79,-91.18 0,-52.65 20.62,-94.99 61.88,-94.99 26.59,0 53.18,21.71 53.18,65.68l0 55.36zm378.85 -58.62c0,-66.22 -25.51,-125.92 -119.4,-125.92 -47.22,0 -84.68,13.56 -104.75,25.51l15.2 52.1c19.54,-11.94 46.67,-20.62 74.36,-20.62 43.96,0 54.27,22.8 54.27,52.65 -96.07,0 -165,36.37 -165,113.99 0,48.85 34.73,90.64 90.64,90.64 33.66,0 62.96,-13.57 80.33,-37.46l1.63 0 4.89 31.48 72.19 0c-3.26,-18.45 -4.35,-45.05 -4.35,-71.64l0 -110.73zm-78.16 78.7c0,38.53 -31.48,52.11 -50.47,52.11 -20.08,0 -38,-12.49 -38,-41.26 0,-43.96 45.05,-54.27 88.47,-54.27l0 43.42zm408.16 -77.08c0,-89.01 -42.33,-128.09 -96.07,-128.09 -26.06,0 -59.17,11.4 -80.88,42.88l-1.09 0 0 -170.43 -80.33 0 0 436.38 80.33 0 0 -183.46c0,-45.05 30.94,-59.16 51.02,-59.16 34.74,0 46.68,29.85 46.68,68.39l0 174.22 80.33 0 0 -180.74zm269.2 -85.21l0 -170.43 -80.33 0 0 349.54c0,30.94 -1.08,65.13 -2.16,86.84l68.38 0 3.8 -41.79 1.63 0c18.99,34.2 47.76,47.77 81.41,47.77 62.42,0 123.75,-53.19 123.75,-162.83 0,-90.09 -44.51,-151.97 -111.26,-151.97 -38.53,0 -66.76,16.28 -84.13,42.88l-1.09 0zm0 86.29c0,-39.07 26.6,-65.13 54.28,-65.13 41.25,0 61.33,40.17 61.33,91.73 0,58.62 -22.26,94.99 -61.33,94.99 -32.02,0 -54.28,-28.23 -54.28,-62.42l0 -59.17zm336.52 -205.16c0,-24.97 -17.37,-42.88 -43.42,-42.88 -24.97,0 -42.88,17.91 -42.88,42.88 0,24.42 17.37,42.87 42.88,42.87 24.96,0 43.42,-16.82 43.42,-42.87zm-2.72 82.49l-80.33 0 0 302.32 80.33 0 0 -302.32zm330.54 116.87c0,-84.3 -42.88,-122.84 -98.24,-122.84 -43.97,0 -73.82,24.96 -87.39,47.22l-1.63 0 -3.8 -41.26 -69.47 0c1.09,26.69 2.16,55.45 2.16,90.82l0 211.5 80.33 0 0 -179.93c0,-45.86 29.86,-62.69 51.57,-62.69 34.2,0 46.13,29.31 46.13,66.22l0 176.4 80.33 0 0 -185.45zm382.1 -231.94l-100.95 0 -118.32 417.38 81.42 0 28.76 -110.18 111.81 0 29.85 110.18 84.13 0 -116.69 -417.38zm-97.7 246.41l24.97 -95.53c5.97,-24.42 13.02,-58.62 18.45,-84.67l1.63 0c5.43,25.51 12.48,59.16 18.99,85.22l24.97 94.98 -89.02 0zm344.65 -265.41l-80.33 0 0 436.38 80.33 0 0 -436.38zm341.39 19l-80.32 0 0 274.1c0,65.13 -23.88,81.42 -60.25,81.42 -15.74,0 -29.85,-2.72 -40.16,-5.97l-8.69 65.67c14.11,4.89 37.45,8.15 56.45,8.15 77.62,0 132.98,-33.66 132.98,-148.72l0 -274.64zm298.52 235.01c0,-66.22 -25.51,-125.92 -119.4,-125.92 -47.22,0 -84.68,13.56 -104.75,25.51l15.2 52.1c19.54,-11.94 46.67,-20.62 74.36,-20.62 43.96,0 54.27,22.8 54.27,52.65 -96.07,0 -165,36.37 -165,113.99 0,48.85 34.73,90.64 90.64,90.64 33.66,0 62.96,-13.57 80.33,-37.46l1.63 0 4.89 31.48 72.19 0c-3.26,-18.45 -4.35,-45.05 -4.35,-71.64l0 -110.73zm-78.16 78.7c0,38.53 -31.48,52.11 -50.47,52.11 -20.08,0 -38,-12.49 -38,-41.26 0,-43.96 45.05,-54.27 88.47,-54.27l0 43.42zm314.8 -203.54c-5.43,-1.08 -10.31,-1.63 -17.91,-1.63 -28.22,0 -60.79,20.08 -74.9,59.16l-2.17 0 -3.25 -52.65 -68.93 0c1.09,27.14 2.16,56.99 2.16,94.44l0 207.88 80.33 0 0 -156.31c0,-51.57 27.68,-75.99 64.05,-75.99 8.14,0 14.65,0.55 20.62,1.63l0 -76.53zm209.5 0c-5.43,-1.08 -10.31,-1.63 -17.91,-1.63 -28.22,0 -60.79,20.08 -74.9,59.16l-2.17 0 -3.25 -52.65 -68.93 0c1.09,27.14 2.16,56.99 2.16,94.44l0 207.88 80.33 0 0 -156.31c0,-51.57 27.68,-75.99 64.05,-75.99 8.14,0 14.65,0.55 20.62,1.63l0 -76.53zm270.29 124.84c0,-66.22 -25.51,-125.92 -119.4,-125.92 -47.22,0 -84.68,13.56 -104.75,25.51l15.2 52.1c19.54,-11.94 46.67,-20.62 74.36,-20.62 43.96,0 54.27,22.8 54.27,52.65 -96.07,0 -165,36.37 -165,113.99 0,48.85 34.73,90.64 90.64,90.64 33.66,0 62.96,-13.57 80.33,-37.46l1.63 0 4.89 31.48 72.19 0c-3.26,-18.45 -4.35,-45.05 -4.35,-71.64l0 -110.73zm-78.16 78.7c0,38.53 -31.48,52.11 -50.47,52.11 -20.08,0 -38,-12.49 -38,-41.26 0,-43.96 45.05,-54.27 88.47,-54.27l0 43.42zm408.16 -77.08c0,-89.01 -42.33,-128.09 -96.07,-128.09 -26.06,0 -59.17,11.4 -80.88,42.88l-1.09 0 0 -170.43 -80.33 0 0 436.38 80.33 0 0 -183.46c0,-45.05 30.94,-59.16 51.02,-59.16 34.74,0 46.68,29.85 46.68,68.39l0 174.22 80.33 0 0 -180.74zm170.96 42.88l148.72 0 0 -55.36 -148.72 0 0 55.36zm705.04 -279.52l-98.78 0 -47.22 156.86c-14.11,49.93 -26.6,100.41 -36.36,147.09l-1.63 0c-9.22,-47.76 -21.16,-96.61 -34.73,-147.09l-45.05 -156.86 -99.33 0 -28.22 417.38 73.27 0 8.15 -160.66c2.71,-51.56 5.43,-113.44 6.51,-166.08l1.63 0c9.77,51.02 22.8,107.47 36.37,154.69l46.13 166.08 60.78 0 51.02 -168.8c14.11,-46.67 29.31,-102.04 41.26,-151.97l1.63 0c-0.55,52.65 2.17,109.1 4.34,164.46l7.6 162.28 76.53 0 -23.88 -417.38zm306.66 350.08c-20.62,7.06 -43.96,12.49 -73.82,12.49 -43.42,0 -80.33,-20.62 -82.49,-72.18l180.73 0c1.63,-8.69 2.17,-20.08 2.17,-32.03 0,-97.69 -47.77,-149.8 -121.04,-149.8 -88.47,0 -138.4,74.9 -138.4,161.75 0,93.89 53.18,152.51 146.54,152.51 37.46,0 72.73,-6.51 97.7,-17.36l-11.4 -55.37zm-156.31 -115.6c2.16,-29.86 18.45,-70.02 56.98,-70.02 39.62,0 52.11,38.53 51.57,70.02l-108.55 0zm498.79 -253.47l-80.33 0 0 163.37 -1.09 0c-11.94,-20.62 -37.45,-35.27 -72.73,-35.27 -65.13,0 -122.12,56.45 -122.12,159.57 0,91.72 48.85,154.69 117.24,154.69 36.9,0 69.47,-19 85.21,-48.85l1.63 0 3.8 42.88 70.56 0c-1.09,-22.25 -2.17,-55.91 -2.17,-86.3l0 -350.08zm-80.33 312.63c0,47.76 -30.4,65.13 -54.27,65.13 -38,0 -60.79,-36.36 -60.79,-91.18 0,-52.65 20.62,-94.99 61.88,-94.99 26.59,0 53.18,21.71 53.18,65.68l0 55.36zm378.85 -58.62c0,-66.22 -25.51,-125.92 -119.4,-125.92 -47.22,0 -84.68,13.56 -104.75,25.51l15.2 52.1c19.54,-11.94 46.67,-20.62 74.36,-20.62 43.96,0 54.27,22.8 54.27,52.65 -96.07,0 -165,36.37 -165,113.99 0,48.85 34.73,90.64 90.64,90.64 33.66,0 62.96,-13.57 80.33,-37.46l1.63 0 4.89 31.48 72.19 0c-3.26,-18.45 -4.35,-45.05 -4.35,-71.64l0 -110.73zm-78.16 78.7c0,38.53 -31.48,52.11 -50.47,52.11 -20.08,0 -38,-12.49 -38,-41.26 0,-43.96 45.05,-54.27 88.47,-54.27l0 43.42zm408.16 -81.78c0,-84.3 -42.88,-122.84 -98.24,-122.84 -43.97,0 -73.82,24.96 -87.39,47.22l-1.63 0 -3.8 -41.26 -69.47 0c1.09,26.69 2.16,55.45 2.16,90.82l0 211.5 80.33 0 0 -179.93c0,-45.86 29.86,-62.69 51.57,-62.69 34.2,0 46.13,29.31 46.13,66.22l0 176.4 80.33 0 0 -185.45zm-10618 234.79l10653.28 0 0 24.68 -10653.28 0 0 -24.68z"/>
   <path class="fil1" d="M327.2 18251.14l-45.16 0 0 251.17c0,92.12 -39.71,132.38 -99.55,132.38 -54.4,0 -95.75,-38.08 -95.75,-132.38l0 -251.17 -45.15 0 0 250.62c0,125.31 61.47,170.47 138.72,170.47 82.69,0 146.9,-48.42 146.9,-173.19l0 -247.9zm328.06 233.94c0,-100.65 -63.11,-122.95 -100.1,-122.95 -46.25,0 -80.52,26.11 -95.21,54.95l-1.09 0 -2.72 -47.88 -40.26 0c1.09,23.94 2.17,46.15 2.17,76.62l0 219.89 45.15 0 0 -181.34c0,-52.05 39.18,-84.69 77.8,-84.69 51.69,0 69.1,42.44 69.1,90.86l0 175.18 45.15 0 0 -180.62zm139.82 -199.11c0,-16.87 -11.42,-30.47 -29.38,-30.47 -17.41,0 -29.93,13.6 -29.93,30.47 0,17.41 11.97,31 29.38,31 17.42,0 29.93,-11.96 29.93,-31zm-7.08 83.23l-45.15 0 0 296.5 45.15 0 0 -296.5zm269.85 0l-58.76 171.92c-9.24,26.66 -17.95,51.68 -24.48,76.16l-1.63 0c-6.53,-24.48 -14.69,-49.51 -23.94,-76.16l-59.31 -171.92 -48.41 0 109.35 296.5 42.43 0 112.62 -296.5 -47.88 0zm300.31 251.35c-18.5,7.62 -40.8,15.23 -77.8,15.23 -53.32,0 -100.11,-31.01 -100.65,-113.16l201.84 0c0.55,-7.08 1.09,-14.69 1.09,-25.03 0,-51.68 -23.39,-135.46 -114.79,-135.46 -79.97,0 -132.2,66.91 -132.2,159.95 0,88.68 51.68,149.61 138.18,149.61 45.15,0 76.16,-10.34 93.03,-18.49l-8.7 -32.64zm-177.36 -131.66c4.36,-40.8 28.29,-92.48 82.69,-92.48 58.21,0 75.08,52.23 74.53,92.48l-157.22 0zm404.76 -124.58c-4.9,-0.54 -8.7,-1.63 -13.6,-1.63 -36.45,0 -67.46,26.66 -80.52,63.65l-1.63 0 -2.18 -57.12 -39.71 0c1.63,28.29 2.17,57.12 2.17,88.68l0 207.83 45.15 0 0 -161.03c0,-50.05 25.03,-98.47 73.99,-98.47 6.53,0 11.42,0.55 16.32,1.09l0 -42.98zm204.56 15.78c-15.77,-9.8 -39.71,-17.95 -68,-17.95 -59.84,0 -96.84,38.08 -96.84,84.32 0,35.91 25.57,63.65 75.63,83.79 39.17,15.77 54.94,31 54.94,58.75 0,26.66 -19.58,47.88 -59.3,47.88 -25.57,0 -51.14,-10.89 -66.91,-20.13l-12.51 34.81c20.13,11.97 48.42,20.13 77.79,20.13 64.74,0 105,-34.81 105,-87.59 0,-44.61 -27.74,-69.63 -75.63,-89.22 -38.08,-16.32 -54.94,-28.28 -54.94,-53.85 0,-23.94 17.41,-44.07 50.05,-44.07 26.66,0 46.79,10.34 57.67,17.42l13.05 -34.27zm131.12 -94.12c0,-16.87 -11.42,-30.47 -29.38,-30.47 -17.41,0 -29.93,13.6 -29.93,30.47 0,17.41 11.97,31 29.38,31 17.42,0 29.93,-11.96 29.93,-31zm-7.08 83.23l-45.15 0 0 296.5 45.15 0 0 -296.5zm101.74 0l-45.7 0 0 35.36 45.7 0 0 170.28c0,31.56 2.18,96.84 73.99,96.84 19.04,0 34.27,-2.72 44.07,-7.07l-2.72 -34.82c-7.62,2.72 -16.87,4.36 -30.47,4.36 -28.84,0 -40.26,-20.68 -40.26,-58.21l0 -171.38 76.71 0 0 -35.36 -76.71 0 0 -69.09 -44.61 15.23 0 53.85zm374.84 110.99c0,-58.76 -21.76,-118.06 -105.54,-118.06 -33.19,0 -66.37,9.25 -90.31,25.02l10.89 31.01c20.13,-14.15 46.79,-21.22 72.36,-21.22 67.46,0 67.46,56.58 67.46,81.61 -109.9,-0.54 -171.92,38.08 -171.92,109.35 0,42.98 29.92,84.33 86.5,84.33 41.89,0 72.36,-21.21 87.59,-44.61l1.63 0 4.35 38.08 41.35 0c-3.81,-20.68 -4.36,-46.25 -4.36,-70.72l0 -114.79zm-44.61 87.59c0,35.91 -31,69.63 -75.08,69.63 -27.2,0 -51.14,-16.86 -51.14,-54.95 0,-62.56 70.18,-70.72 126.22,-70.72l0 56.04zm283.44 -187.69c-15.77,-9.8 -39.71,-17.95 -68,-17.95 -59.84,0 -96.84,38.08 -96.84,84.32 0,35.91 25.57,63.65 75.63,83.79 39.17,15.77 54.94,31 54.94,58.75 0,26.66 -19.58,47.88 -59.3,47.88 -25.57,0 -51.14,-10.89 -66.91,-20.13l-12.51 34.81c20.13,11.97 48.42,20.13 77.79,20.13 64.74,0 105,-34.81 105,-87.59 0,-44.61 -27.74,-69.63 -75.63,-89.22 -38.08,-16.32 -54.94,-28.28 -54.94,-53.85 0,-23.94 17.41,-44.07 50.05,-44.07 26.66,0 46.79,10.34 57.67,17.42l13.05 -34.27zm572.33 -128.94l-56.58 0 -75.63 210.55c-18.49,53.32 -32.64,96.83 -42.98,138.72l-1.63 0c-10.89,-42.98 -24.48,-87.04 -41.9,-138.72l-72.9 -210.55 -55.5 0 -28.83 414.56 42.98 0 11.42 -182.26c3.81,-63.65 7.08,-132.2 8.16,-182.8l1.63 0c11.42,47.88 27.2,100.1 47.32,159.95l69.1 203.47 33.19 0 73.99 -207.82c20.13,-57.67 37,-108.81 50.59,-155.6l1.63 0c-0.55,42.44 3.81,119.14 7.07,178.45l10.34 186.6 44.61 0 -26.12 -414.56zm337.85 118.06l-45.15 0 0 184.43c0,52.23 -41.89,80.52 -77.26,80.52 -49.51,0 -66.37,-40.26 -66.37,-97.93l0 -167.02 -45.16 0 0 175.18c0,102.28 52.78,127.85 97.39,127.85 50.59,0 81.06,-29.93 94.66,-53.32l1.63 0 2.17 46.79 40.8 0c-1.09,-22.85 -2.72,-48.42 -2.72,-78.89l0 -217.62zm326.42 115.88c0,-100.65 -62.56,-122.95 -99.01,-122.95 -36.45,0 -72.36,20.13 -91.94,52.77l-1.1 0 0 -184.43 -45.15 0 0 435.23 45.15 0 0 -182.26c0,-54.4 43.53,-83.23 78.35,-83.23 51.14,0 68.55,41.89 68.55,90.31l0 175.18 45.15 0 0 -180.62zm281.81 -4.9c0,-58.76 -21.76,-118.06 -105.54,-118.06 -33.19,0 -66.37,9.25 -90.31,25.02l10.89 31.01c20.13,-14.15 46.79,-21.22 72.36,-21.22 67.46,0 67.46,56.58 67.46,81.61 -109.9,-0.54 -171.92,38.08 -171.92,109.35 0,42.98 29.92,84.33 86.5,84.33 41.89,0 72.36,-21.21 87.59,-44.61l1.63 0 4.35 38.08 41.35 0c-3.81,-20.68 -4.36,-46.25 -4.36,-70.72l0 -114.79zm-44.61 87.59c0,35.91 -31,69.63 -75.08,69.63 -27.2,0 -51.14,-16.86 -51.14,-54.95 0,-62.56 70.18,-70.72 126.22,-70.72l0 56.04zm535.33 -80.52c0,-101.74 -57.66,-125.12 -94.12,-125.12 -45.7,0 -75.62,23.94 -95.21,59.3l-1.09 0c-12.51,-35.36 -42.43,-59.3 -81.06,-59.3 -46.79,0 -73.99,25.57 -90.31,54.4l-1.63 0 -2.72 -47.33 -39.71 0c1.09,24.48 2.17,46.15 2.17,76.62l0 219.89 44.61 0 0 -181.34c0,-46.61 34.27,-84.69 72.9,-84.69 41.89,0 62.03,35.91 62.03,83.24l0 182.8 44.61 0 0 -186.6c0,-45.16 33.18,-79.43 69.63,-79.43 44.61,0 65.28,37 65.28,94.67l0 171.37 44.61 0 0 -178.45zm491.27 0c0,-101.74 -57.66,-125.12 -94.12,-125.12 -45.7,0 -75.62,23.94 -95.21,59.3l-1.09 0c-12.51,-35.36 -42.43,-59.3 -81.06,-59.3 -46.79,0 -73.99,25.57 -90.31,54.4l-1.63 0 -2.72 -47.33 -39.71 0c1.09,24.48 2.17,46.15 2.17,76.62l0 219.89 44.61 0 0 -181.34c0,-46.61 34.27,-84.69 72.9,-84.69 41.89,0 62.03,35.91 62.03,83.24l0 182.8 44.61 0 0 -186.6c0,-45.16 33.18,-79.43 69.63,-79.43 44.61,0 65.28,37 65.28,94.67l0 171.37 44.61 0 0 -178.45zm281.82 -7.07c0,-58.76 -21.76,-118.06 -105.54,-118.06 -33.19,0 -66.37,9.25 -90.31,25.02l10.89 31.01c20.13,-14.15 46.79,-21.22 72.36,-21.22 67.46,0 67.46,56.58 67.46,81.61 -109.9,-0.54 -171.92,38.08 -171.92,109.35 0,42.98 29.92,84.33 86.5,84.33 41.89,0 72.36,-21.21 87.59,-44.61l1.63 0 4.35 38.08 41.35 0c-3.81,-20.68 -4.36,-46.25 -4.36,-70.72l0 -114.79zm-44.61 87.59c0,35.91 -31,69.63 -75.08,69.63 -27.2,0 -51.14,-16.86 -51.14,-54.95 0,-62.56 70.18,-70.72 126.22,-70.72l0 56.04zm371.04 -337.31l-45.16 0 0 177.9 -1.09 0c-13.6,-24.48 -42.98,-45.7 -86.5,-45.7 -69.1,0 -127.85,58.76 -127.85,158.86 0,91.41 53.32,150.7 121.86,150.7 47.87,0 81.61,-26.12 96.84,-57.12l1.63 0 2.18 50.59 40.26 0c-1.09,-20.13 -2.17,-49.51 -2.17,-73.44l0 -361.79zm-45.16 314.46c0,47.33 -32.64,90.31 -81.61,90.31 -58.21,0 -87.59,-53.32 -87.59,-115.88 0,-68 33.19,-120.23 89.22,-120.23 38.08,0 79.97,29.38 79.97,88.68l0 57.12zm186.6 -258.96c0,-16.87 -11.42,-30.47 -29.38,-30.47 -17.41,0 -29.93,13.6 -29.93,30.47 0,17.41 11.97,31 29.38,31 17.42,0 29.93,-11.96 29.93,-31zm-7.08 83.23l-45.15 0 0 296.5 45.15 0 0 -296.5zm265.5 0l-59.84 178.99c-7.08,22.85 -14.15,45.16 -19.04,63.11l-1.63 0c-4.9,-17.95 -11.42,-41.35 -19.04,-62.02l-64.74 -180.08 -49.51 0 105 274.2c2.18,5.43 3.27,9.79 3.27,12.51 0,5.98 -26.66,81.06 -95.75,106.63l12.51 38.08c10.89,-2.72 35.36,-11.97 60.39,-34.82 37,-34.81 62.02,-90.31 97.38,-186.6l78.89 -210 -47.87 0zm292.15 110.99c0,-58.76 -21.76,-118.06 -105.54,-118.06 -33.19,0 -66.37,9.25 -90.31,25.02l10.89 31.01c20.13,-14.15 46.79,-21.22 72.36,-21.22 67.46,0 67.46,56.58 67.46,81.61 -109.9,-0.54 -171.92,38.08 -171.92,109.35 0,42.98 29.92,84.33 86.5,84.33 41.89,0 72.36,-21.21 87.59,-44.61l1.63 0 4.35 38.08 41.35 0c-3.81,-20.68 -4.36,-46.25 -4.36,-70.72l0 -114.79zm-44.61 87.59c0,35.91 -31,69.63 -75.08,69.63 -27.2,0 -51.14,-16.86 -51.14,-54.95 0,-62.56 70.18,-70.72 126.22,-70.72l0 56.04zm368.86 -82.69c0,-100.65 -62.56,-122.95 -99.01,-122.95 -36.45,0 -72.36,20.13 -91.94,52.77l-1.1 0 0 -184.43 -45.15 0 0 435.23 45.15 0 0 -182.26c0,-54.4 43.53,-83.23 78.35,-83.23 51.14,0 68.55,41.89 68.55,90.31l0 175.18 45.15 0 0 -180.62zm414.55 -220.34c-15.77,-9.79 -45.7,-19.58 -84.87,-19.58 -75.62,0 -126.76,46.24 -126.76,109.35 0,57.12 42.44,93.57 105,116.97 53.86,21.76 76.16,46.79 76.16,87.59 0,44.61 -32.64,74.53 -88.13,74.53 -33.73,0 -66.92,-10.88 -89.22,-25.57l-12.51 37.54c20.67,14.69 61.47,26.11 99.01,26.11 89.22,0 137.1,-50.59 137.1,-116.42 0,-59.3 -34.27,-93.57 -101.19,-121.86 -55.5,-23.4 -80.52,-44.07 -80.52,-84.87 0,-29.93 21.76,-65.29 79.43,-65.29 34.82,0 60.94,11.42 72.9,19.04l13.6 -37.54zm318.8 104.46l-45.15 0 0 184.43c0,52.23 -41.89,80.52 -77.26,80.52 -49.51,0 -66.37,-40.26 -66.37,-97.93l0 -167.02 -45.16 0 0 175.18c0,102.28 52.78,127.85 97.39,127.85 50.59,0 81.06,-29.93 94.66,-53.32l1.63 0 2.17 46.79 40.8 0c-1.09,-22.85 -2.72,-48.42 -2.72,-78.89l0 -217.62zm492.9 118.06c0,-101.74 -57.66,-125.12 -94.12,-125.12 -45.7,0 -75.62,23.94 -95.21,59.3l-1.09 0c-12.51,-35.36 -42.43,-59.3 -81.06,-59.3 -46.79,0 -73.99,25.57 -90.31,54.4l-1.63 0 -2.72 -47.33 -39.71 0c1.09,24.48 2.17,46.15 2.17,76.62l0 219.89 44.61 0 0 -181.34c0,-46.61 34.27,-84.69 72.9,-84.69 41.89,0 62.03,35.91 62.03,83.24l0 182.8 44.61 0 0 -186.6c0,-45.16 33.18,-79.43 69.63,-79.43 44.61,0 65.28,37 65.28,94.67l0 171.37 44.61 0 0 -178.45zm281.82 -7.07c0,-58.76 -21.76,-118.06 -105.54,-118.06 -33.19,0 -66.37,9.25 -90.31,25.02l10.89 31.01c20.13,-14.15 46.79,-21.22 72.36,-21.22 67.46,0 67.46,56.58 67.46,81.61 -109.9,-0.54 -171.92,38.08 -171.92,109.35 0,42.98 29.92,84.33 86.5,84.33 41.89,0 72.36,-21.21 87.59,-44.61l1.63 0 4.35 38.08 41.35 0c-3.81,-20.68 -4.36,-46.25 -4.36,-70.72l0 -114.79zm-44.61 87.59c0,35.91 -31,69.63 -75.08,69.63 -27.2,0 -51.14,-16.86 -51.14,-54.95 0,-62.56 70.18,-70.72 126.22,-70.72l0 56.04zm143.63 -198.58l-45.7 0 0 35.36 45.7 0 0 170.28c0,31.56 2.18,96.84 73.99,96.84 19.04,0 34.27,-2.72 44.07,-7.07l-2.72 -34.82c-7.62,2.72 -16.87,4.36 -30.47,4.36 -28.84,0 -40.26,-20.68 -40.26,-58.21l0 -171.38 76.71 0 0 -35.36 -76.71 0 0 -69.09 -44.61 15.23 0 53.85zm381.92 251.35c-18.5,7.62 -40.8,15.23 -77.8,15.23 -53.32,0 -100.11,-31.01 -100.65,-113.16l201.84 0c0.55,-7.08 1.09,-14.69 1.09,-25.03 0,-51.68 -23.39,-135.46 -114.79,-135.46 -79.97,0 -132.2,66.91 -132.2,159.95 0,88.68 51.68,149.61 138.18,149.61 45.15,0 76.16,-10.34 93.03,-18.49l-8.7 -32.64zm-177.36 -131.66c4.36,-40.8 28.29,-92.48 82.69,-92.48 58.21,0 75.08,52.23 74.53,92.48l-157.22 0zm404.76 -124.58c-4.9,-0.54 -8.7,-1.63 -13.6,-1.63 -36.45,0 -67.46,26.66 -80.52,63.65l-1.63 0 -2.18 -57.12 -39.71 0c1.63,28.29 2.17,57.12 2.17,88.68l0 207.83 45.15 0 0 -161.03c0,-50.05 25.03,-98.47 73.99,-98.47 6.53,0 11.42,0.55 16.32,1.09l0 -42.98zm247 115.88c0,-58.76 -21.76,-118.06 -105.54,-118.06 -33.19,0 -66.37,9.25 -90.31,25.02l10.89 31.01c20.13,-14.15 46.79,-21.22 72.36,-21.22 67.46,0 67.46,56.58 67.46,81.61 -109.9,-0.54 -171.92,38.08 -171.92,109.35 0,42.98 29.92,84.33 86.5,84.33 41.89,0 72.36,-21.21 87.59,-44.61l1.63 0 4.35 38.08 41.35 0c-3.81,-20.68 -4.36,-46.25 -4.36,-70.72l0 -114.79zm-44.61 87.59c0,35.91 -31,69.63 -75.08,69.63 -27.2,0 -51.14,-16.86 -51.14,-54.95 0,-62.56 70.18,-70.72 126.22,-70.72l0 56.04zm545.67 -316.63l-45.16 0 0 251.17c0,92.12 -39.71,132.38 -99.55,132.38 -54.4,0 -95.75,-38.08 -95.75,-132.38l0 -251.17 -45.15 0 0 250.62c0,125.31 61.47,170.47 138.72,170.47 82.69,0 146.9,-48.42 146.9,-173.19l0 -247.9zm102.82 118.06l-45.7 0 0 35.36 45.7 0 0 170.28c0,31.56 2.18,96.84 73.99,96.84 19.04,0 34.27,-2.72 44.07,-7.07l-2.72 -34.82c-7.62,2.72 -16.87,4.36 -30.47,4.36 -28.84,0 -40.26,-20.68 -40.26,-58.21l0 -171.38 76.71 0 0 -35.36 -76.71 0 0 -69.09 -44.61 15.23 0 53.85zm374.84 110.99c0,-58.76 -21.76,-118.06 -105.54,-118.06 -33.19,0 -66.37,9.25 -90.31,25.02l10.89 31.01c20.13,-14.15 46.79,-21.22 72.36,-21.22 67.46,0 67.46,56.58 67.46,81.61 -109.9,-0.54 -171.92,38.08 -171.92,109.35 0,42.98 29.92,84.33 86.5,84.33 41.89,0 72.36,-21.21 87.59,-44.61l1.63 0 4.35 38.08 41.35 0c-3.81,-20.68 -4.36,-46.25 -4.36,-70.72l0 -114.79zm-44.61 87.59c0,35.91 -31,69.63 -75.08,69.63 -27.2,0 -51.14,-16.86 -51.14,-54.95 0,-62.56 70.18,-70.72 126.22,-70.72l0 56.04zm267.12 -203.47c-4.9,-0.54 -8.7,-1.63 -13.6,-1.63 -36.45,0 -67.46,26.66 -80.52,63.65l-1.63 0 -2.18 -57.12 -39.71 0c1.63,28.29 2.17,57.12 2.17,88.68l0 207.83 45.15 0 0 -161.03c0,-50.05 25.03,-98.47 73.99,-98.47 6.53,0 11.42,0.55 16.32,1.09l0 -42.98zm247 115.88c0,-58.76 -21.76,-118.06 -105.54,-118.06 -33.19,0 -66.37,9.25 -90.31,25.02l10.89 31.01c20.13,-14.15 46.79,-21.22 72.36,-21.22 67.46,0 67.46,56.58 67.46,81.61 -109.9,-0.54 -171.92,38.08 -171.92,109.35 0,42.98 29.92,84.33 86.5,84.33 41.89,0 72.36,-21.21 87.59,-44.61l1.63 0 4.35 38.08 41.35 0c-3.81,-20.68 -4.36,-46.25 -4.36,-70.72l0 -114.79zm-44.61 87.59c0,35.91 -31,69.63 -75.08,69.63 -27.2,0 -51.14,-16.86 -51.14,-54.95 0,-62.56 70.18,-70.72 126.22,-70.72l0 56.04z"/>
  </g>
 </g>
</svg>
